<?xml version="1.0" encoding="utf-8"?>
<svg xmlns="http://www.w3.org/2000/svg" width="416" height="270" viewBox="0 0 416 270">
  <style>
    [id^="tooth-"] { transition: filter 0.25s ease; cursor: pointer; }
    [id^="tooth-"]:hover { filter: brightness(0.85) drop-shadow(0 2px 6px rgba(0,0,0,0.25)); }
    [id^="tooth-"] path, [id^="tooth-"] circle { transition: fill 0.3s ease; }
  </style>
  <rect width="416" height="270" fill="#ffffff"/>
  <g id="tooth-55" transform="translate(13.0, 10)">
    <path d="M8.91004 55.5002C7.4146 55.6401 5.81705 55.0168 4.01165 53.6465L3.64799 53.3631C2.37989 52.346 1.77897 51.1573 1.5918 49.8491C1.40185 48.5207 1.63569 47.0422 2.095 45.4619C2.55432 43.8817 3.22372 42.249 3.87548 40.6069C4.4687 39.1122 5.04514 37.6072 5.40303 36.1761C14.2208 35.925 22.1962 37.2763 25.4207 38.0587C25.4576 38.3161 25.5034 38.5725 25.5619 38.826C25.7921 39.9863 26.4099 41.3592 27.0837 42.774C27.7721 44.2195 28.5311 45.734 29.0982 47.2385C29.6661 48.7451 30.0176 50.1828 29.9236 51.4603C29.8315 52.7093 29.3135 53.8256 28.0829 54.7332C25.1761 56.8763 22.377 56.5643 19.9306 55.5863C18.6973 55.0932 17.5654 54.4339 16.5612 53.8325C15.5882 53.2498 14.6739 52.68 13.9558 52.451C13.7622 52.3893 13.5498 52.4509 13.4195 52.6069C12.8306 53.3124 12.2536 53.8771 11.686 54.3141C10.7404 55.0419 9.82277 55.4148 8.91004 55.5002Z" fill="white" stroke="#667085" stroke-linecap="round" stroke-linejoin="round"></path>
<path d="M15.9699 4.23423C15.717 4.25561 15.4799 4.39668 15.2896 4.76256C15.0902 5.14615 14.9603 5.75441 14.9807 6.60902C15.0544 9.66918 15.6294 12.222 16.2035 14.7643C16.9665 18.1429 17.6544 23.1438 17.1975 26.914L17.1492 27.2749C17.137 27.4211 17.1206 27.6089 17.0198 27.8959C16.9182 28.1851 16.7362 28.5665 16.4083 29.1302C16.3812 29.1766 16.3467 29.2184 16.3065 29.2539C16.1736 29.3709 16.0783 29.4711 15.9881 29.5684C15.9015 29.6618 15.7999 29.775 15.6796 29.8805C15.4172 30.1108 15.0924 30.285 14.5076 30.4794C13.8702 30.6913 13.226 30.8355 12.5414 30.7932C11.8442 30.7498 11.1938 30.5195 10.5248 30.1271C8.94259 29.1986 8.37533 27.3625 8.13913 25.8367C7.89712 24.2731 7.94505 22.5819 7.92065 21.6583C7.91477 21.4362 7.91112 21.2118 7.90693 20.995C7.70839 19.067 7.59786 17.4199 7.42274 16.5316L7.42177 16.5315C7.26114 15.7147 7.31386 14.4463 7.36398 13.1059C7.43432 11.2246 7.48255 9.12367 7.09607 7.39198C6.71482 5.68398 5.94779 4.48017 4.49228 4.10346C4.21301 4.10492 3.4117 4.30792 2.94985 5.49694C2.74458 6.12968 2.53259 7.43255 2.3487 9.12927C2.16557 10.8192 2.01458 12.8537 1.92004 14.9028C1.8255 16.9523 1.7874 19.01 1.83038 20.7467C1.87376 22.499 1.99888 23.8687 2.20749 24.5839C2.55925 25.7358 2.98527 26.8254 3.4129 27.9198C4.24956 30.061 5.09701 32.2188 5.28826 34.7338L5.31771 35.2415C5.32977 35.551 5.31934 35.865 5.2933 36.1823C13.944 35.9854 21.769 37.2281 25.3199 38.0322C25.3752 36.1273 25.814 34.1642 26.2218 32.3415C26.5868 30.7104 26.922 29.199 26.9832 27.8642C27.1345 24.5384 26.0911 20.6471 24.515 16.8656C22.9426 13.0933 20.8597 9.47636 18.9831 6.71403C18.3506 5.78301 17.7477 5.13557 17.2151 4.73492C16.6756 4.32906 16.2554 4.21014 15.9699 4.23423ZM11.1751 3.77172C11.1268 3.95584 11.0859 4.17004 11.0538 4.40399C11.0189 4.65832 10.993 4.92191 10.9675 5.17937C10.955 5.30519 10.9426 5.43136 10.9291 5.5527L10.8848 5.89726C10.6467 7.44553 10.3547 8.92513 10.2097 10.4486L10.1573 11.1048C10.1238 11.6217 10.1395 12.1575 10.1668 12.7141C10.1938 13.2617 10.2328 13.8434 10.2415 14.4078C10.2779 16.8014 10.2518 19.1368 10.34 21.5122C10.3723 22.3807 10.3468 23.6045 10.5374 24.7735C10.7312 25.9619 11.1215 26.8894 11.8302 27.3017C12.2341 27.5366 12.5514 27.6305 12.8486 27.6452C13.1518 27.6601 13.4786 27.5947 13.9105 27.4414C14.3861 27.2727 14.6703 26.8919 14.8038 26.2544C14.9412 25.5976 14.8977 24.7394 14.7494 23.7782C14.6023 22.825 14.3608 21.8192 14.1299 20.8777C13.903 19.9522 13.6806 19.0657 13.5942 18.4004C13.4704 17.4497 13.2422 16.5218 12.9998 15.5671C12.7596 14.6207 12.5038 13.6441 12.346 12.638C12.1292 11.2541 12.0115 9.84818 11.882 8.47236C11.7518 7.08918 11.6094 5.73015 11.3464 4.40297L11.3475 4.40206C11.299 4.1722 11.2431 3.95912 11.1751 3.77172Z" fill="white" stroke="#667085" stroke-linecap="round" stroke-linejoin="round"></path>
  </g>
  <g id="tooth-55" transform="translate(15.5, 72.0)">
    <path d="M9.59414 18.3616H9.68316C10.7957 19.4922 12.3193 20.1893 14 20.1893C15.6806 20.1893 17.2043 19.4922 18.3168 18.3616H18.4058L23.3461 23.4851C20.9542 25.9657 17.6499 27.5 14 27.5C10.3501 27.5 7.0457 25.9657 4.65381 23.4851L9.59414 18.3616Z" fill="#FFFFFF" stroke="#98A2B3" stroke-linecap="round"></path>
    <path d="M9.63846 9.59411L9.63846 9.68313C8.50786 10.7956 7.81077 12.3193 7.81077 13.9999C7.81077 15.6806 8.50786 17.2042 9.63846 18.3167L9.63846 18.4058L4.51489 23.3461C2.03429 20.9542 0.499999 17.6498 0.5 13.9999C0.5 10.35 2.03429 7.04567 4.51489 4.65378L9.63846 9.59411Z" fill="#FFFFFF" stroke="#98A2B3" stroke-linecap="round"></path>
    <path d="M18.4057 9.63846L18.3167 9.63846C17.2042 8.50786 15.6806 7.81077 13.9999 7.81077C12.3193 7.81077 10.7956 8.50786 9.68311 9.63846L9.5941 9.63846L4.65376 4.51489C7.04565 2.03428 10.35 0.499999 13.9999 0.499999C17.6498 0.5 20.9542 2.03429 23.3461 4.51489L18.4057 9.63846Z" fill="#FFFFFF" stroke="#98A2B3" stroke-linecap="round"></path>
    <path d="M18.3615 18.4059L18.3615 18.3169C19.4921 17.2044 20.1892 15.6807 20.1892 14.0001C20.1892 12.3194 19.4921 10.7958 18.3615 9.68326L18.3615 9.59425L23.4851 4.65391C25.9657 7.0458 27.5 10.3502 27.5 14.0001C27.5 17.65 25.9657 20.9543 23.4851 23.3462L18.3615 18.4059Z" fill="#FFFFFF" stroke="#98A2B3" stroke-linecap="round"></path>
    <circle cx="6.43846" cy="6.43846" r="6.43846" transform="matrix(1 0 0 -1 7.56152 20.4385)" fill="#FFFFFF" stroke="#98A2B3" stroke-linecap="round"></circle>
  </g>
  <text x="29.0" y="114.0" text-anchor="middle" font-size="9" fill="#667085" font-family="sans-serif">55</text>
  <g id="tooth-54" transform="translate(53.5, 10)">
    <path d="M7.89193 36.9739C6.26842 37.0544 4.9934 36.9512 4.23943 36.6293C4.20228 36.6135 4.16326 36.6019 4.12337 36.5957L3.64091 36.5206C3.70726 35.952 3.74332 35.3806 3.73875 34.8056C3.70873 30.9733 4.36255 31.1379 3.26042 27.4547C2.55927 25.1064 1.60307 22.8006 1.10134 20.3983C0.35519 16.8176 0.314669 12.2933 0.917183 8.69444C1.10587 7.56222 1.35468 6.50681 2.31948 5.82069C2.72683 5.8668 2.93091 5.86029 3.18177 6.21913C4.06077 7.47266 4.39964 9.85967 4.83057 11.3738C5.56603 13.9457 6.43818 16.4754 7.18436 19.0432C8.29505 22.86 8.87699 25.6667 9.85918 25.9247C10.3652 25.9406 10.5946 25.9547 11.0255 25.876C12.5436 25.5986 12.8348 24.402 13.0685 23.9661C13.6668 23.0361 14.4001 14.9692 13.0152 11.2334C12.2821 9.24993 11.2054 7.41574 10.4172 5.45607C10.1553 4.80356 9.79436 3.84391 10.0981 3.16938L10.6861 3C11.0096 3.07357 11.3158 3.17711 11.5843 3.37053C12.8171 4.25923 13.9313 5.83924 14.8933 7.00651C21.1345 14.5879 21.9583 18.5866 21.9562 27.4547C21.9562 29.7472 22.1681 31.9744 22.5 34.2281C20.7229 34.6999 16.9705 35.6549 13.2335 36.3117C11.3557 36.6418 9.49269 36.8945 7.89193 36.9739Z" fill="white"></path>
<path d="M7.05993 5.31617C7.6475 5.49572 9.85919 8.42029 9.85919 8.42029C10.5083 9.56341 10.5962 9.77662 11.6004 12.7241C12.6045 15.6717 13.2913 24.0916 10.7545 24.2934C9.43525 24.3984 9.36558 18.4701 8.6262 15.491C7.89553 12.5469 6.41119 7.17822 6.41119 7.17822C6.41119 7.17822 5.93044 4.97101 7.05993 5.31617Z" fill="white"></path>
<path d="M7.89193 36.9739C6.26842 37.0544 4.9934 36.9512 4.23943 36.6293C4.20228 36.6135 4.16326 36.6019 4.12337 36.5957L3.64091 36.5206C3.70726 35.952 3.74332 35.3806 3.73875 34.8056C3.70873 30.9733 4.36255 31.1379 3.26042 27.4547C2.55927 25.1064 1.60307 22.8006 1.10134 20.3983C0.35519 16.8176 0.314669 12.2933 0.917183 8.69444C1.10587 7.56222 1.35468 6.50681 2.31948 5.82069C2.72683 5.8668 2.93091 5.86029 3.18177 6.21913C4.06077 7.47266 4.39964 9.85967 4.83057 11.3738C5.56603 13.9457 6.43818 16.4754 7.18436 19.0432C8.29505 22.86 8.87699 25.6667 9.85918 25.9247C10.3652 25.9406 10.5946 25.9547 11.0255 25.876C12.5436 25.5986 12.8348 24.402 13.0685 23.9661C13.6668 23.0361 14.4001 14.9692 13.0152 11.2334C12.2821 9.24993 11.2054 7.41574 10.4172 5.45607C10.1553 4.80356 9.79436 3.84391 10.0981 3.16938L10.6861 3C11.0096 3.07357 11.3158 3.17711 11.5843 3.37053C12.8171 4.25923 13.9313 5.83924 14.8933 7.00651C21.1345 14.5879 21.9583 18.5866 21.9562 27.4547C21.9562 29.7472 22.1681 31.9744 22.5 34.2281C20.7229 34.6999 16.9705 35.6549 13.2335 36.3117C11.3557 36.6418 9.49269 36.8945 7.89193 36.9739Z" fill="#FFFFFF" stroke="#667085" stroke-linecap="round" stroke-linejoin="round"></path>
<path d="M7.05993 5.31617C7.6475 5.49572 9.85919 8.42029 9.85919 8.42029C10.5083 9.56341 10.5962 9.77662 11.6004 12.7241C12.6045 15.6717 13.2913 24.0916 10.7545 24.2934C9.43525 24.3984 9.36558 18.4701 8.6262 15.491C7.89553 12.5469 6.41119 7.17822 6.41119 7.17822C6.41119 7.17822 5.93044 4.97101 7.05993 5.31617Z" fill="#FFFFFF" stroke="#667085" stroke-linecap="round" stroke-linejoin="round"></path>
<path d="M25.0653 49.7116C24.2686 52.0093 22.4825 53.7903 20.388 54.8274C17.3685 55.1054 16.116 53.0616 13.5724 52.7372C12.1051 52.55 11.0727 53.2278 9.99655 54.0685C9.00314 54.8452 7.78208 55.132 6.55687 54.9446C5.24474 54.7448 4.21409 53.8098 3.46075 52.7372C-0.7029 46.8045 2.8929 41.1959 3.97411 35.3057L4.5866 35.4055C7.94971 36.8959 19.2166 33.9491 22.6584 33C23.7656 37.3707 26.572 45.3685 25.0653 49.7116Z" fill="white" stroke="#667085" stroke-linecap="round" stroke-linejoin="round"></path>
  </g>
  <g id="tooth-54" transform="translate(53.5, 70.0)">
    <path d="M9.59414 18.3616H9.68316C10.7957 19.4922 12.3193 20.1893 14 20.1893C15.6806 20.1893 17.2043 19.4922 18.3168 18.3616H18.4058L23.3461 23.4851C20.9542 25.9657 17.6499 27.5 14 27.5C10.3501 27.5 7.0457 25.9657 4.65381 23.4851L9.59414 18.3616Z" fill="#FFFFFF" stroke="#98A2B3" stroke-linecap="round"></path>
    <path d="M9.63846 9.59411L9.63846 9.68313C8.50786 10.7956 7.81077 12.3193 7.81077 13.9999C7.81077 15.6806 8.50786 17.2042 9.63846 18.3167L9.63846 18.4058L4.51489 23.3461C2.03429 20.9542 0.499999 17.6498 0.5 13.9999C0.5 10.35 2.03429 7.04567 4.51489 4.65378L9.63846 9.59411Z" fill="#FFFFFF" stroke="#98A2B3" stroke-linecap="round"></path>
    <path d="M18.4057 9.63846L18.3167 9.63846C17.2042 8.50786 15.6806 7.81077 13.9999 7.81077C12.3193 7.81077 10.7956 8.50786 9.68311 9.63846L9.5941 9.63846L4.65376 4.51489C7.04565 2.03428 10.35 0.499999 13.9999 0.499999C17.6498 0.5 20.9542 2.03429 23.3461 4.51489L18.4057 9.63846Z" fill="#FFFFFF" stroke="#98A2B3" stroke-linecap="round"></path>
    <path d="M18.3615 18.4059L18.3615 18.3169C19.4921 17.2044 20.1892 15.6807 20.1892 14.0001C20.1892 12.3194 19.4921 10.7958 18.3615 9.68326L18.3615 9.59425L23.4851 4.65391C25.9657 7.0458 27.5 10.3502 27.5 14.0001C27.5 17.65 25.9657 20.9543 23.4851 23.3462L18.3615 18.4059Z" fill="#FFFFFF" stroke="#98A2B3" stroke-linecap="round"></path>
    <circle cx="6.43846" cy="6.43846" r="6.43846" transform="matrix(1 0 0 -1 7.56152 20.4385)" fill="#FFFFFF" stroke="#98A2B3" stroke-linecap="round"></circle>
  </g>
  <text x="67.0" y="112.0" text-anchor="middle" font-size="9" fill="#667085" font-family="sans-serif">54</text>
  <g id="tooth-53" transform="translate(93.5, 10)">
    <path d="M17.0834 43.262C16.6643 40.646 16.8501 38.2377 16.6127 35.6109C15.6757 29.0862 14.4537 23.0916 14.0527 16.4843C13.9262 14.4033 14.1793 6.45478 13.8038 5.34416C13.3691 4.0766 11.7417 3.62569 10.9439 4.33749C6.99528 7.86103 8.52755 14.3678 7.81211 19.0948C7.46806 21.3717 6.50958 24.2617 5.85539 26.5109C5.35743 30.338 6.01215 33.5128 5.62173 37.5166C5.31083 39.0069 5.07377 40.5597 4.83582 42.0773C7.93709 41.8477 13.91 42.1838 17.0834 43.262Z" fill="white" stroke="#667085" stroke-linecap="round" stroke-linejoin="round"></path>
<path d="M2.3098 59.3129C3.68369 61.4997 6.52504 63.9315 8.77897 64.9355C11.4721 63.9892 20.4549 58.8383 21.6689 56.2048C23.1487 52.9938 18.4533 46.4391 17.2932 42.5903C15.5349 42.0219 13.4407 41.6766 11.9767 41.4542L9.18155 41.1539C7.73408 41.0691 6.1691 41.0555 4.75422 41.0407C4.5643 42.2365 4.36848 43.4033 4.12548 44.4915C3.01962 49.4585 -0.961365 54.1035 2.3098 59.3129Z" fill="white" stroke="#667085" stroke-linecap="round" stroke-linejoin="round"></path>
  </g>
  <g id="tooth-53" transform="translate(91.5, 80.0)">
    <path d="M9.59414 18.3616H9.68316C10.7957 19.4922 12.3193 20.1893 14 20.1893C15.6806 20.1893 17.2043 19.4922 18.3168 18.3616H18.4058L23.3461 23.4851C20.9542 25.9657 17.6499 27.5 14 27.5C10.3501 27.5 7.0457 25.9657 4.65381 23.4851L9.59414 18.3616Z" fill="#FFFFFF" stroke="#98A2B3" stroke-linecap="round"></path>
    <path d="M9.63846 9.59411L9.63846 9.68313C8.50786 10.7956 7.81077 12.3193 7.81077 13.9999C7.81077 15.6806 8.50786 17.2042 9.63846 18.3167L9.63846 18.4058L4.51489 23.3461C2.03429 20.9542 0.499999 17.6498 0.5 13.9999C0.5 10.35 2.03429 7.04567 4.51489 4.65378L9.63846 9.59411Z" fill="#FFFFFF" stroke="#98A2B3" stroke-linecap="round"></path>
    <path d="M18.4057 9.63846L18.3167 9.63846C17.2042 8.50786 15.6806 7.81077 13.9999 7.81077C12.3193 7.81077 10.7956 8.50786 9.68311 9.63846L9.5941 9.63846L4.65376 4.51489C7.04565 2.03428 10.35 0.499999 13.9999 0.499999C17.6498 0.5 20.9542 2.03429 23.3461 4.51489L18.4057 9.63846Z" fill="#FFFFFF" stroke="#98A2B3" stroke-linecap="round"></path>
    <path d="M18.3615 18.4059L18.3615 18.3169C19.4921 17.2044 20.1892 15.6807 20.1892 14.0001C20.1892 12.3194 19.4921 10.7958 18.3615 9.68326L18.3615 9.59425L23.4851 4.65391C25.9657 7.0458 27.5 10.3502 27.5 14.0001C27.5 17.65 25.9657 20.9543 23.4851 23.3462L18.3615 18.4059Z" fill="#FFFFFF" stroke="#98A2B3" stroke-linecap="round"></path>
    <circle cx="6.43846" cy="6.43846" r="6.43846" transform="matrix(1 0 0 -1 7.56152 20.4385)" fill="#FFFFFF" stroke="#98A2B3" stroke-linecap="round"></circle>
  </g>
  <text x="105.0" y="122.0" text-anchor="middle" font-size="9" fill="#667085" font-family="sans-serif">53</text>
  <g id="tooth-52" transform="translate(134.0, 10)">
    <path d="M4.71829 39C4.8608 38.8605 5.01752 38.75 5.19828 38.661C5.39484 38.5644 5.60333 38.5005 5.80966 38.4447C6.03467 38.3838 6.22563 38.3399 6.49198 38.2643C6.52285 38.2555 6.55519 38.2497 6.58745 38.2471C8.54291 38.0883 11.4879 38.0467 13.5 38.1385C13.2105 35.1009 12.5837 32.2562 12.293 29.2049C12.0363 26.5208 12.4173 23.654 12.0714 20.9094C11.6646 18.4356 10.9271 16.0796 10.5333 13.6004C10.2222 11.6554 10.6545 3.94772 9.34038 3C6.17087 3.93307 4.5279 17.1184 4.74545 20.0791C4.90646 22.2861 5.42251 25.0805 5.28762 27.3148C5.07918 30.7851 4.06052 35.4356 4.71829 39Z" fill="white" stroke="#667085" stroke-linecap="round" stroke-linejoin="round"></path>
<path d="M7.08604 38.1436C6.1054 38.4185 5.67991 38.38 5.21188 39.299C3.29315 43.0707 1.29943 47.124 1.51623 51.3443C1.59322 52.8436 1.26501 57.706 2.67721 58.5842C5.31318 59.263 12.2182 59.0955 15.0304 58.1926C15.466 58.0531 16.1164 56.1943 16.1509 55.4708C17.5955 43.0406 14.1268 43.6153 13.5534 38.0475C11.6975 37.9585 8.91562 37.9968 7.08604 38.1436Z" fill="white" stroke="#667085" stroke-linecap="round" stroke-linejoin="round"></path>
  </g>
  <g id="tooth-52" transform="translate(129.5, 74.0)">
    <path d="M9.59414 18.3616H9.68316C10.7957 19.4922 12.3193 20.1893 14 20.1893C15.6806 20.1893 17.2043 19.4922 18.3168 18.3616H18.4058L23.3461 23.4851C20.9542 25.9657 17.6499 27.5 14 27.5C10.3501 27.5 7.0457 25.9657 4.65381 23.4851L9.59414 18.3616Z" fill="#FFFFFF" stroke="#98A2B3" stroke-linecap="round"></path>
    <path d="M9.63846 9.59411L9.63846 9.68313C8.50786 10.7956 7.81077 12.3193 7.81077 13.9999C7.81077 15.6806 8.50786 17.2042 9.63846 18.3167L9.63846 18.4058L4.51489 23.3461C2.03429 20.9542 0.499999 17.6498 0.5 13.9999C0.5 10.35 2.03429 7.04567 4.51489 4.65378L9.63846 9.59411Z" fill="#FFFFFF" stroke="#98A2B3" stroke-linecap="round"></path>
    <path d="M18.4057 9.63846L18.3167 9.63846C17.2042 8.50786 15.6806 7.81077 13.9999 7.81077C12.3193 7.81077 10.7956 8.50786 9.68311 9.63846L9.5941 9.63846L4.65376 4.51489C7.04565 2.03428 10.35 0.499999 13.9999 0.499999C17.6498 0.5 20.9542 2.03429 23.3461 4.51489L18.4057 9.63846Z" fill="#FFFFFF" stroke="#98A2B3" stroke-linecap="round"></path>
    <path d="M18.3615 18.4059L18.3615 18.3169C19.4921 17.2044 20.1892 15.6807 20.1892 14.0001C20.1892 12.3194 19.4921 10.7958 18.3615 9.68326L18.3615 9.59425L23.4851 4.65391C25.9657 7.0458 27.5 10.3502 27.5 14.0001C27.5 17.65 25.9657 20.9543 23.4851 23.3462L18.3615 18.4059Z" fill="#FFFFFF" stroke="#98A2B3" stroke-linecap="round"></path>
    <circle cx="6.43846" cy="6.43846" r="6.43846" transform="matrix(1 0 0 -1 7.56152 20.4385)" fill="#FFFFFF" stroke="#98A2B3" stroke-linecap="round"></circle>
  </g>
  <text x="143.0" y="116.0" text-anchor="middle" font-size="9" fill="#667085" font-family="sans-serif">52</text>
  <g id="tooth-51" transform="translate(169.5, 10)">
    <path d="M4.9192 41.2313C7.60176 39.6041 9.91806 40.0181 13.3676 40.142C15.1602 40.3175 16.2315 40.9993 16.7864 41.0193C16.798 40.5758 16.6975 39.5808 16.6439 39.1454C16.515 38.1041 16.2653 37.0764 16.0151 36.0483C15.7055 34.7768 15.3952 33.5041 15.3141 32.2026C15.2296 30.8288 15.3171 29.4361 15.4048 28.0451C15.4717 26.9835 15.5386 25.9223 15.5289 24.8701C15.5159 23.3635 15.3086 21.8605 15.1013 20.3584C14.9401 19.1898 14.7789 18.0213 14.7092 16.8514C14.6317 15.548 14.7282 14.1016 14.826 12.6228C15.0087 9.86146 15.1988 6.98486 14.2839 4.70574C13.9995 3.99372 13.4085 3.56498 12.683 3.2432C11.9679 3.30084 11.5707 3.45089 11.0907 3.97484C10.1219 5.03274 9.55518 6.39227 9.02045 7.6756L8.91871 7.92035C6.75255 13.0954 6.3673 18.2093 5.9674 23.5177C5.85936 24.9519 5.75051 26.4007 5.60492 27.8683C5.49806 28.9503 5.36061 30.0159 5.22482 31.0734C4.83147 34.1368 4.44663 37.138 4.81918 40.3088C4.84217 40.5584 4.84601 40.8601 4.84985 41.178C4.85024 41.2102 4.85079 41.2426 4.85118 41.2751C4.87408 41.2609 4.89604 41.2453 4.9192 41.2313Z" fill="white" stroke="#667085" stroke-width="1.11502" stroke-linecap="round" stroke-linejoin="round"></path>
<path d="M10.5287 64.9532C9.17057 64.9274 7.84586 64.8376 6.6784 64.654C5.5031 64.4692 4.52493 64.1953 3.83543 63.8211C2.89477 63.3101 2.23244 62.3867 1.77762 60.7623C-0.710486 51.8893 3.42258 44.2974 4.53355 42.2916C5.00696 41.4373 5.82981 40.8516 6.90107 40.4918C7.97627 40.1306 9.26719 40.0106 10.5984 40.0703C11.9261 40.1298 13.2675 40.3671 14.4282 40.6999C15.5982 41.0354 16.5454 41.4563 17.109 41.8605C20.4595 44.2639 20.8562 48.1592 21.1052 50.6492L21.2115 51.6221C21.3569 52.7472 21.5529 54.6641 21.6267 56.7027C21.7008 58.7515 21.6493 60.8797 21.3184 62.4478C21.2331 62.8516 21.206 63.0868 21.1319 63.3394C21.0695 63.552 20.9915 63.6967 20.8568 63.8218C20.7126 63.9557 20.4624 64.1052 19.9919 64.245C19.5211 64.385 18.8622 64.5056 17.9323 64.6031C16.0546 64.8001 13.2448 65.0047 10.5287 64.9532Z" fill="white" stroke="#667085" stroke-width="1.11502" stroke-linecap="round"></path>
  </g>
  <g id="tooth-51" transform="translate(167.5, 80.0)">
    <path d="M9.59414 18.3616H9.68316C10.7957 19.4922 12.3193 20.1893 14 20.1893C15.6806 20.1893 17.2043 19.4922 18.3168 18.3616H18.4058L23.3461 23.4851C20.9542 25.9657 17.6499 27.5 14 27.5C10.3501 27.5 7.0457 25.9657 4.65381 23.4851L9.59414 18.3616Z" fill="#FFFFFF" stroke="#98A2B3" stroke-linecap="round"></path>
    <path d="M9.63846 9.59411L9.63846 9.68313C8.50786 10.7956 7.81077 12.3193 7.81077 13.9999C7.81077 15.6806 8.50786 17.2042 9.63846 18.3167L9.63846 18.4058L4.51489 23.3461C2.03429 20.9542 0.499999 17.6498 0.5 13.9999C0.5 10.35 2.03429 7.04567 4.51489 4.65378L9.63846 9.59411Z" fill="#FFFFFF" stroke="#98A2B3" stroke-linecap="round"></path>
    <path d="M18.4057 9.63846L18.3167 9.63846C17.2042 8.50786 15.6806 7.81077 13.9999 7.81077C12.3193 7.81077 10.7956 8.50786 9.68311 9.63846L9.5941 9.63846L4.65376 4.51489C7.04565 2.03428 10.35 0.499999 13.9999 0.499999C17.6498 0.5 20.9542 2.03429 23.3461 4.51489L18.4057 9.63846Z" fill="#FFFFFF" stroke="#98A2B3" stroke-linecap="round"></path>
    <path d="M18.3615 18.4059L18.3615 18.3169C19.4921 17.2044 20.1892 15.6807 20.1892 14.0001C20.1892 12.3194 19.4921 10.7958 18.3615 9.68326L18.3615 9.59425L23.4851 4.65391C25.9657 7.0458 27.5 10.3502 27.5 14.0001C27.5 17.65 25.9657 20.9543 23.4851 23.3462L18.3615 18.4059Z" fill="#FFFFFF" stroke="#98A2B3" stroke-linecap="round"></path>
    <circle cx="6.43846" cy="6.43846" r="6.43846" transform="matrix(1 0 0 -1 7.56152 20.4385)" fill="#FFFFFF" stroke="#98A2B3" stroke-linecap="round"></circle>
  </g>
  <text x="181.0" y="122.0" text-anchor="middle" font-size="9" fill="#667085" font-family="sans-serif">51</text>
  <g id="tooth-61" transform="translate(246.5, 10) scale(-1, 1)">
    <path d="M4.9192 41.2313C7.60176 39.6041 9.91806 40.0181 13.3676 40.142C15.1602 40.3175 16.2315 40.9993 16.7864 41.0193C16.798 40.5758 16.6975 39.5808 16.6439 39.1454C16.515 38.1041 16.2653 37.0764 16.0151 36.0483C15.7055 34.7768 15.3952 33.5041 15.3141 32.2026C15.2296 30.8288 15.3171 29.4361 15.4048 28.0451C15.4717 26.9835 15.5386 25.9223 15.5289 24.8701C15.5159 23.3635 15.3086 21.8605 15.1013 20.3584C14.9401 19.1898 14.7789 18.0213 14.7092 16.8514C14.6317 15.548 14.7282 14.1016 14.826 12.6228C15.0087 9.86146 15.1988 6.98486 14.2839 4.70574C13.9995 3.99372 13.4085 3.56498 12.683 3.2432C11.9679 3.30084 11.5707 3.45089 11.0907 3.97484C10.1219 5.03274 9.55518 6.39227 9.02045 7.6756L8.91871 7.92035C6.75255 13.0954 6.3673 18.2093 5.9674 23.5177C5.85936 24.9519 5.75051 26.4007 5.60492 27.8683C5.49806 28.9503 5.36061 30.0159 5.22482 31.0734C4.83147 34.1368 4.44663 37.138 4.81918 40.3088C4.84217 40.5584 4.84601 40.8601 4.84985 41.178C4.85024 41.2102 4.85079 41.2426 4.85118 41.2751C4.87408 41.2609 4.89604 41.2453 4.9192 41.2313Z" fill="white" stroke="#667085" stroke-width="1.11502" stroke-linecap="round" stroke-linejoin="round"></path>
<path d="M10.5287 64.9532C9.17057 64.9274 7.84586 64.8376 6.6784 64.654C5.5031 64.4692 4.52493 64.1953 3.83543 63.8211C2.89477 63.3101 2.23244 62.3867 1.77762 60.7623C-0.710486 51.8893 3.42258 44.2974 4.53355 42.2916C5.00696 41.4373 5.82981 40.8516 6.90107 40.4918C7.97627 40.1306 9.26719 40.0106 10.5984 40.0703C11.9261 40.1298 13.2675 40.3671 14.4282 40.6999C15.5982 41.0354 16.5454 41.4563 17.109 41.8605C20.4595 44.2639 20.8562 48.1592 21.1052 50.6492L21.2115 51.6221C21.3569 52.7472 21.5529 54.6641 21.6267 56.7027C21.7008 58.7515 21.6493 60.8797 21.3184 62.4478C21.2331 62.8516 21.206 63.0868 21.1319 63.3394C21.0695 63.552 20.9915 63.6967 20.8568 63.8218C20.7126 63.9557 20.4624 64.1052 19.9919 64.245C19.5211 64.385 18.8622 64.5056 17.9323 64.6031C16.0546 64.8001 13.2448 65.0047 10.5287 64.9532Z" fill="white" stroke="#667085" stroke-width="1.11502" stroke-linecap="round"></path>
  </g>
  <g id="tooth-61" transform="translate(221.5, 80.0)">
    <path d="M9.59414 18.3616H9.68316C10.7957 19.4922 12.3193 20.1893 14 20.1893C15.6806 20.1893 17.2043 19.4922 18.3168 18.3616H18.4058L23.3461 23.4851C20.9542 25.9657 17.6499 27.5 14 27.5C10.3501 27.5 7.0457 25.9657 4.65381 23.4851L9.59414 18.3616Z" fill="#FFFFFF" stroke="#98A2B3" stroke-linecap="round"></path>
    <path d="M9.63846 9.59411L9.63846 9.68313C8.50786 10.7956 7.81077 12.3193 7.81077 13.9999C7.81077 15.6806 8.50786 17.2042 9.63846 18.3167L9.63846 18.4058L4.51489 23.3461C2.03429 20.9542 0.499999 17.6498 0.5 13.9999C0.5 10.35 2.03429 7.04567 4.51489 4.65378L9.63846 9.59411Z" fill="#FFFFFF" stroke="#98A2B3" stroke-linecap="round"></path>
    <path d="M18.4057 9.63846L18.3167 9.63846C17.2042 8.50786 15.6806 7.81077 13.9999 7.81077C12.3193 7.81077 10.7956 8.50786 9.68311 9.63846L9.5941 9.63846L4.65376 4.51489C7.04565 2.03428 10.35 0.499999 13.9999 0.499999C17.6498 0.5 20.9542 2.03429 23.3461 4.51489L18.4057 9.63846Z" fill="#FFFFFF" stroke="#98A2B3" stroke-linecap="round"></path>
    <path d="M18.3615 18.4059L18.3615 18.3169C19.4921 17.2044 20.1892 15.6807 20.1892 14.0001C20.1892 12.3194 19.4921 10.7958 18.3615 9.68326L18.3615 9.59425L23.4851 4.65391C25.9657 7.0458 27.5 10.3502 27.5 14.0001C27.5 17.65 25.9657 20.9543 23.4851 23.3462L18.3615 18.4059Z" fill="#FFFFFF" stroke="#98A2B3" stroke-linecap="round"></path>
    <circle cx="6.43846" cy="6.43846" r="6.43846" transform="matrix(1 0 0 -1 7.56152 20.4385)" fill="#FFFFFF" stroke="#98A2B3" stroke-linecap="round"></circle>
  </g>
  <text x="235.0" y="122.0" text-anchor="middle" font-size="9" fill="#667085" font-family="sans-serif">61</text>
  <g id="tooth-62" transform="translate(282.0, 10) scale(-1, 1)">
    <path d="M4.71829 39C4.8608 38.8605 5.01752 38.75 5.19828 38.661C5.39484 38.5644 5.60333 38.5005 5.80966 38.4447C6.03467 38.3838 6.22563 38.3399 6.49198 38.2643C6.52285 38.2555 6.55519 38.2497 6.58745 38.2471C8.54291 38.0883 11.4879 38.0467 13.5 38.1385C13.2105 35.1009 12.5837 32.2562 12.293 29.2049C12.0363 26.5208 12.4173 23.654 12.0714 20.9094C11.6646 18.4356 10.9271 16.0796 10.5333 13.6004C10.2222 11.6554 10.6545 3.94772 9.34038 3C6.17087 3.93307 4.5279 17.1184 4.74545 20.0791C4.90646 22.2861 5.42251 25.0805 5.28762 27.3148C5.07918 30.7851 4.06052 35.4356 4.71829 39Z" fill="white" stroke="#667085" stroke-linecap="round" stroke-linejoin="round"></path>
<path d="M7.08604 38.1436C6.1054 38.4185 5.67991 38.38 5.21188 39.299C3.29315 43.0707 1.29943 47.124 1.51623 51.3443C1.59322 52.8436 1.26501 57.706 2.67721 58.5842C5.31318 59.263 12.2182 59.0955 15.0304 58.1926C15.466 58.0531 16.1164 56.1943 16.1509 55.4708C17.5955 43.0406 14.1268 43.6153 13.5534 38.0475C11.6975 37.9585 8.91562 37.9968 7.08604 38.1436Z" fill="white" stroke="#667085" stroke-linecap="round" stroke-linejoin="round"></path>
  </g>
  <g id="tooth-62" transform="translate(259.5, 74.0)">
    <path d="M9.59414 18.3616H9.68316C10.7957 19.4922 12.3193 20.1893 14 20.1893C15.6806 20.1893 17.2043 19.4922 18.3168 18.3616H18.4058L23.3461 23.4851C20.9542 25.9657 17.6499 27.5 14 27.5C10.3501 27.5 7.0457 25.9657 4.65381 23.4851L9.59414 18.3616Z" fill="#FFFFFF" stroke="#98A2B3" stroke-linecap="round"></path>
    <path d="M9.63846 9.59411L9.63846 9.68313C8.50786 10.7956 7.81077 12.3193 7.81077 13.9999C7.81077 15.6806 8.50786 17.2042 9.63846 18.3167L9.63846 18.4058L4.51489 23.3461C2.03429 20.9542 0.499999 17.6498 0.5 13.9999C0.5 10.35 2.03429 7.04567 4.51489 4.65378L9.63846 9.59411Z" fill="#FFFFFF" stroke="#98A2B3" stroke-linecap="round"></path>
    <path d="M18.4057 9.63846L18.3167 9.63846C17.2042 8.50786 15.6806 7.81077 13.9999 7.81077C12.3193 7.81077 10.7956 8.50786 9.68311 9.63846L9.5941 9.63846L4.65376 4.51489C7.04565 2.03428 10.35 0.499999 13.9999 0.499999C17.6498 0.5 20.9542 2.03429 23.3461 4.51489L18.4057 9.63846Z" fill="#FFFFFF" stroke="#98A2B3" stroke-linecap="round"></path>
    <path d="M18.3615 18.4059L18.3615 18.3169C19.4921 17.2044 20.1892 15.6807 20.1892 14.0001C20.1892 12.3194 19.4921 10.7958 18.3615 9.68326L18.3615 9.59425L23.4851 4.65391C25.9657 7.0458 27.5 10.3502 27.5 14.0001C27.5 17.65 25.9657 20.9543 23.4851 23.3462L18.3615 18.4059Z" fill="#FFFFFF" stroke="#98A2B3" stroke-linecap="round"></path>
    <circle cx="6.43846" cy="6.43846" r="6.43846" transform="matrix(1 0 0 -1 7.56152 20.4385)" fill="#FFFFFF" stroke="#98A2B3" stroke-linecap="round"></circle>
  </g>
  <text x="273.0" y="116.0" text-anchor="middle" font-size="9" fill="#667085" font-family="sans-serif">62</text>
  <g id="tooth-63" transform="translate(322.5, 10) scale(-1, 1)">
    <path d="M17.0834 43.262C16.6643 40.646 16.8501 38.2377 16.6127 35.6109C15.6757 29.0862 14.4537 23.0916 14.0527 16.4843C13.9262 14.4033 14.1793 6.45478 13.8038 5.34416C13.3691 4.0766 11.7417 3.62569 10.9439 4.33749C6.99528 7.86103 8.52755 14.3678 7.81211 19.0948C7.46806 21.3717 6.50958 24.2617 5.85539 26.5109C5.35743 30.338 6.01215 33.5128 5.62173 37.5166C5.31083 39.0069 5.07377 40.5597 4.83582 42.0773C7.93709 41.8477 13.91 42.1838 17.0834 43.262Z" fill="white" stroke="#667085" stroke-linecap="round" stroke-linejoin="round"></path>
<path d="M2.3098 59.3129C3.68369 61.4997 6.52504 63.9315 8.77897 64.9355C11.4721 63.9892 20.4549 58.8383 21.6689 56.2048C23.1487 52.9938 18.4533 46.4391 17.2932 42.5903C15.5349 42.0219 13.4407 41.6766 11.9767 41.4542L9.18155 41.1539C7.73408 41.0691 6.1691 41.0555 4.75422 41.0407C4.5643 42.2365 4.36848 43.4033 4.12548 44.4915C3.01962 49.4585 -0.961365 54.1035 2.3098 59.3129Z" fill="white" stroke="#667085" stroke-linecap="round" stroke-linejoin="round"></path>
  </g>
  <g id="tooth-63" transform="translate(297.5, 80.0)">
    <path d="M9.59414 18.3616H9.68316C10.7957 19.4922 12.3193 20.1893 14 20.1893C15.6806 20.1893 17.2043 19.4922 18.3168 18.3616H18.4058L23.3461 23.4851C20.9542 25.9657 17.6499 27.5 14 27.5C10.3501 27.5 7.0457 25.9657 4.65381 23.4851L9.59414 18.3616Z" fill="#FFFFFF" stroke="#98A2B3" stroke-linecap="round"></path>
    <path d="M9.63846 9.59411L9.63846 9.68313C8.50786 10.7956 7.81077 12.3193 7.81077 13.9999C7.81077 15.6806 8.50786 17.2042 9.63846 18.3167L9.63846 18.4058L4.51489 23.3461C2.03429 20.9542 0.499999 17.6498 0.5 13.9999C0.5 10.35 2.03429 7.04567 4.51489 4.65378L9.63846 9.59411Z" fill="#FFFFFF" stroke="#98A2B3" stroke-linecap="round"></path>
    <path d="M18.4057 9.63846L18.3167 9.63846C17.2042 8.50786 15.6806 7.81077 13.9999 7.81077C12.3193 7.81077 10.7956 8.50786 9.68311 9.63846L9.5941 9.63846L4.65376 4.51489C7.04565 2.03428 10.35 0.499999 13.9999 0.499999C17.6498 0.5 20.9542 2.03429 23.3461 4.51489L18.4057 9.63846Z" fill="#FFFFFF" stroke="#98A2B3" stroke-linecap="round"></path>
    <path d="M18.3615 18.4059L18.3615 18.3169C19.4921 17.2044 20.1892 15.6807 20.1892 14.0001C20.1892 12.3194 19.4921 10.7958 18.3615 9.68326L18.3615 9.59425L23.4851 4.65391C25.9657 7.0458 27.5 10.3502 27.5 14.0001C27.5 17.65 25.9657 20.9543 23.4851 23.3462L18.3615 18.4059Z" fill="#FFFFFF" stroke="#98A2B3" stroke-linecap="round"></path>
    <circle cx="6.43846" cy="6.43846" r="6.43846" transform="matrix(1 0 0 -1 7.56152 20.4385)" fill="#FFFFFF" stroke="#98A2B3" stroke-linecap="round"></circle>
  </g>
  <text x="311.0" y="122.0" text-anchor="middle" font-size="9" fill="#667085" font-family="sans-serif">63</text>
  <g id="tooth-64" transform="translate(362.5, 10) scale(-1, 1)">
    <path d="M7.89193 36.9739C6.26842 37.0544 4.9934 36.9512 4.23943 36.6293C4.20228 36.6135 4.16326 36.6019 4.12337 36.5957L3.64091 36.5206C3.70726 35.952 3.74332 35.3806 3.73875 34.8056C3.70873 30.9733 4.36255 31.1379 3.26042 27.4547C2.55927 25.1064 1.60307 22.8006 1.10134 20.3983C0.35519 16.8176 0.314669 12.2933 0.917183 8.69444C1.10587 7.56222 1.35468 6.50681 2.31948 5.82069C2.72683 5.8668 2.93091 5.86029 3.18177 6.21913C4.06077 7.47266 4.39964 9.85967 4.83057 11.3738C5.56603 13.9457 6.43818 16.4754 7.18436 19.0432C8.29505 22.86 8.87699 25.6667 9.85918 25.9247C10.3652 25.9406 10.5946 25.9547 11.0255 25.876C12.5436 25.5986 12.8348 24.402 13.0685 23.9661C13.6668 23.0361 14.4001 14.9692 13.0152 11.2334C12.2821 9.24993 11.2054 7.41574 10.4172 5.45607C10.1553 4.80356 9.79436 3.84391 10.0981 3.16938L10.6861 3C11.0096 3.07357 11.3158 3.17711 11.5843 3.37053C12.8171 4.25923 13.9313 5.83924 14.8933 7.00651C21.1345 14.5879 21.9583 18.5866 21.9562 27.4547C21.9562 29.7472 22.1681 31.9744 22.5 34.2281C20.7229 34.6999 16.9705 35.6549 13.2335 36.3117C11.3557 36.6418 9.49269 36.8945 7.89193 36.9739Z" fill="white"></path>
<path d="M7.05993 5.31617C7.6475 5.49572 9.85919 8.42029 9.85919 8.42029C10.5083 9.56341 10.5962 9.77662 11.6004 12.7241C12.6045 15.6717 13.2913 24.0916 10.7545 24.2934C9.43525 24.3984 9.36558 18.4701 8.6262 15.491C7.89553 12.5469 6.41119 7.17822 6.41119 7.17822C6.41119 7.17822 5.93044 4.97101 7.05993 5.31617Z" fill="white"></path>
<path d="M7.89193 36.9739C6.26842 37.0544 4.9934 36.9512 4.23943 36.6293C4.20228 36.6135 4.16326 36.6019 4.12337 36.5957L3.64091 36.5206C3.70726 35.952 3.74332 35.3806 3.73875 34.8056C3.70873 30.9733 4.36255 31.1379 3.26042 27.4547C2.55927 25.1064 1.60307 22.8006 1.10134 20.3983C0.35519 16.8176 0.314669 12.2933 0.917183 8.69444C1.10587 7.56222 1.35468 6.50681 2.31948 5.82069C2.72683 5.8668 2.93091 5.86029 3.18177 6.21913C4.06077 7.47266 4.39964 9.85967 4.83057 11.3738C5.56603 13.9457 6.43818 16.4754 7.18436 19.0432C8.29505 22.86 8.87699 25.6667 9.85918 25.9247C10.3652 25.9406 10.5946 25.9547 11.0255 25.876C12.5436 25.5986 12.8348 24.402 13.0685 23.9661C13.6668 23.0361 14.4001 14.9692 13.0152 11.2334C12.2821 9.24993 11.2054 7.41574 10.4172 5.45607C10.1553 4.80356 9.79436 3.84391 10.0981 3.16938L10.6861 3C11.0096 3.07357 11.3158 3.17711 11.5843 3.37053C12.8171 4.25923 13.9313 5.83924 14.8933 7.00651C21.1345 14.5879 21.9583 18.5866 21.9562 27.4547C21.9562 29.7472 22.1681 31.9744 22.5 34.2281C20.7229 34.6999 16.9705 35.6549 13.2335 36.3117C11.3557 36.6418 9.49269 36.8945 7.89193 36.9739Z" fill="#FFFFFF" stroke="#667085" stroke-linecap="round" stroke-linejoin="round"></path>
<path d="M7.05993 5.31617C7.6475 5.49572 9.85919 8.42029 9.85919 8.42029C10.5083 9.56341 10.5962 9.77662 11.6004 12.7241C12.6045 15.6717 13.2913 24.0916 10.7545 24.2934C9.43525 24.3984 9.36558 18.4701 8.6262 15.491C7.89553 12.5469 6.41119 7.17822 6.41119 7.17822C6.41119 7.17822 5.93044 4.97101 7.05993 5.31617Z" fill="#FFFFFF" stroke="#667085" stroke-linecap="round" stroke-linejoin="round"></path>
<path d="M25.0653 49.7116C24.2686 52.0093 22.4825 53.7903 20.388 54.8274C17.3685 55.1054 16.116 53.0616 13.5724 52.7372C12.1051 52.55 11.0727 53.2278 9.99655 54.0685C9.00314 54.8452 7.78208 55.132 6.55687 54.9446C5.24474 54.7448 4.21409 53.8098 3.46075 52.7372C-0.7029 46.8045 2.8929 41.1959 3.97411 35.3057L4.5866 35.4055C7.94971 36.8959 19.2166 33.9491 22.6584 33C23.7656 37.3707 26.572 45.3685 25.0653 49.7116Z" fill="white" stroke="#667085" stroke-linecap="round" stroke-linejoin="round"></path>
  </g>
  <g id="tooth-64" transform="translate(335.5, 70.0)">
    <path d="M9.59414 18.3616H9.68316C10.7957 19.4922 12.3193 20.1893 14 20.1893C15.6806 20.1893 17.2043 19.4922 18.3168 18.3616H18.4058L23.3461 23.4851C20.9542 25.9657 17.6499 27.5 14 27.5C10.3501 27.5 7.0457 25.9657 4.65381 23.4851L9.59414 18.3616Z" fill="#FFFFFF" stroke="#98A2B3" stroke-linecap="round"></path>
    <path d="M9.63846 9.59411L9.63846 9.68313C8.50786 10.7956 7.81077 12.3193 7.81077 13.9999C7.81077 15.6806 8.50786 17.2042 9.63846 18.3167L9.63846 18.4058L4.51489 23.3461C2.03429 20.9542 0.499999 17.6498 0.5 13.9999C0.5 10.35 2.03429 7.04567 4.51489 4.65378L9.63846 9.59411Z" fill="#FFFFFF" stroke="#98A2B3" stroke-linecap="round"></path>
    <path d="M18.4057 9.63846L18.3167 9.63846C17.2042 8.50786 15.6806 7.81077 13.9999 7.81077C12.3193 7.81077 10.7956 8.50786 9.68311 9.63846L9.5941 9.63846L4.65376 4.51489C7.04565 2.03428 10.35 0.499999 13.9999 0.499999C17.6498 0.5 20.9542 2.03429 23.3461 4.51489L18.4057 9.63846Z" fill="#FFFFFF" stroke="#98A2B3" stroke-linecap="round"></path>
    <path d="M18.3615 18.4059L18.3615 18.3169C19.4921 17.2044 20.1892 15.6807 20.1892 14.0001C20.1892 12.3194 19.4921 10.7958 18.3615 9.68326L18.3615 9.59425L23.4851 4.65391C25.9657 7.0458 27.5 10.3502 27.5 14.0001C27.5 17.65 25.9657 20.9543 23.4851 23.3462L18.3615 18.4059Z" fill="#FFFFFF" stroke="#98A2B3" stroke-linecap="round"></path>
    <circle cx="6.43846" cy="6.43846" r="6.43846" transform="matrix(1 0 0 -1 7.56152 20.4385)" fill="#FFFFFF" stroke="#98A2B3" stroke-linecap="round"></circle>
  </g>
  <text x="349.0" y="112.0" text-anchor="middle" font-size="9" fill="#667085" font-family="sans-serif">64</text>
  <g id="tooth-65" transform="translate(403.0, 10) scale(-1, 1)">
    <path d="M8.91004 55.5002C7.4146 55.6401 5.81705 55.0168 4.01165 53.6465L3.64799 53.3631C2.37989 52.346 1.77897 51.1573 1.5918 49.8491C1.40185 48.5207 1.63569 47.0422 2.095 45.4619C2.55432 43.8817 3.22372 42.249 3.87548 40.6069C4.4687 39.1122 5.04514 37.6072 5.40303 36.1761C14.2208 35.925 22.1962 37.2763 25.4207 38.0587C25.4576 38.3161 25.5034 38.5725 25.5619 38.826C25.7921 39.9863 26.4099 41.3592 27.0837 42.774C27.7721 44.2195 28.5311 45.734 29.0982 47.2385C29.6661 48.7451 30.0176 50.1828 29.9236 51.4603C29.8315 52.7093 29.3135 53.8256 28.0829 54.7332C25.1761 56.8763 22.377 56.5643 19.9306 55.5863C18.6973 55.0932 17.5654 54.4339 16.5612 53.8325C15.5882 53.2498 14.6739 52.68 13.9558 52.451C13.7622 52.3893 13.5498 52.4509 13.4195 52.6069C12.8306 53.3124 12.2536 53.8771 11.686 54.3141C10.7404 55.0419 9.82277 55.4148 8.91004 55.5002Z" fill="white" stroke="#667085" stroke-linecap="round" stroke-linejoin="round"></path>
<path d="M15.9699 4.23423C15.717 4.25561 15.4799 4.39668 15.2896 4.76256C15.0902 5.14615 14.9603 5.75441 14.9807 6.60902C15.0544 9.66918 15.6294 12.222 16.2035 14.7643C16.9665 18.1429 17.6544 23.1438 17.1975 26.914L17.1492 27.2749C17.137 27.4211 17.1206 27.6089 17.0198 27.8959C16.9182 28.1851 16.7362 28.5665 16.4083 29.1302C16.3812 29.1766 16.3467 29.2184 16.3065 29.2539C16.1736 29.3709 16.0783 29.4711 15.9881 29.5684C15.9015 29.6618 15.7999 29.775 15.6796 29.8805C15.4172 30.1108 15.0924 30.285 14.5076 30.4794C13.8702 30.6913 13.226 30.8355 12.5414 30.7932C11.8442 30.7498 11.1938 30.5195 10.5248 30.1271C8.94259 29.1986 8.37533 27.3625 8.13913 25.8367C7.89712 24.2731 7.94505 22.5819 7.92065 21.6583C7.91477 21.4362 7.91112 21.2118 7.90693 20.995C7.70839 19.067 7.59786 17.4199 7.42274 16.5316L7.42177 16.5315C7.26114 15.7147 7.31386 14.4463 7.36398 13.1059C7.43432 11.2246 7.48255 9.12367 7.09607 7.39198C6.71482 5.68398 5.94779 4.48017 4.49228 4.10346C4.21301 4.10492 3.4117 4.30792 2.94985 5.49694C2.74458 6.12968 2.53259 7.43255 2.3487 9.12927C2.16557 10.8192 2.01458 12.8537 1.92004 14.9028C1.8255 16.9523 1.7874 19.01 1.83038 20.7467C1.87376 22.499 1.99888 23.8687 2.20749 24.5839C2.55925 25.7358 2.98527 26.8254 3.4129 27.9198C4.24956 30.061 5.09701 32.2188 5.28826 34.7338L5.31771 35.2415C5.32977 35.551 5.31934 35.865 5.2933 36.1823C13.944 35.9854 21.769 37.2281 25.3199 38.0322C25.3752 36.1273 25.814 34.1642 26.2218 32.3415C26.5868 30.7104 26.922 29.199 26.9832 27.8642C27.1345 24.5384 26.0911 20.6471 24.515 16.8656C22.9426 13.0933 20.8597 9.47636 18.9831 6.71403C18.3506 5.78301 17.7477 5.13557 17.2151 4.73492C16.6756 4.32906 16.2554 4.21014 15.9699 4.23423ZM11.1751 3.77172C11.1268 3.95584 11.0859 4.17004 11.0538 4.40399C11.0189 4.65832 10.993 4.92191 10.9675 5.17937C10.955 5.30519 10.9426 5.43136 10.9291 5.5527L10.8848 5.89726C10.6467 7.44553 10.3547 8.92513 10.2097 10.4486L10.1573 11.1048C10.1238 11.6217 10.1395 12.1575 10.1668 12.7141C10.1938 13.2617 10.2328 13.8434 10.2415 14.4078C10.2779 16.8014 10.2518 19.1368 10.34 21.5122C10.3723 22.3807 10.3468 23.6045 10.5374 24.7735C10.7312 25.9619 11.1215 26.8894 11.8302 27.3017C12.2341 27.5366 12.5514 27.6305 12.8486 27.6452C13.1518 27.6601 13.4786 27.5947 13.9105 27.4414C14.3861 27.2727 14.6703 26.8919 14.8038 26.2544C14.9412 25.5976 14.8977 24.7394 14.7494 23.7782C14.6023 22.825 14.3608 21.8192 14.1299 20.8777C13.903 19.9522 13.6806 19.0657 13.5942 18.4004C13.4704 17.4497 13.2422 16.5218 12.9998 15.5671C12.7596 14.6207 12.5038 13.6441 12.346 12.638C12.1292 11.2541 12.0115 9.84818 11.882 8.47236C11.7518 7.08918 11.6094 5.73015 11.3464 4.40297L11.3475 4.40206C11.299 4.1722 11.2431 3.95912 11.1751 3.77172Z" fill="white" stroke="#667085" stroke-linecap="round" stroke-linejoin="round"></path>
  </g>
  <g id="tooth-65" transform="translate(373.5, 72.0)">
    <path d="M9.59414 18.3616H9.68316C10.7957 19.4922 12.3193 20.1893 14 20.1893C15.6806 20.1893 17.2043 19.4922 18.3168 18.3616H18.4058L23.3461 23.4851C20.9542 25.9657 17.6499 27.5 14 27.5C10.3501 27.5 7.0457 25.9657 4.65381 23.4851L9.59414 18.3616Z" fill="#FFFFFF" stroke="#98A2B3" stroke-linecap="round"></path>
    <path d="M9.63846 9.59411L9.63846 9.68313C8.50786 10.7956 7.81077 12.3193 7.81077 13.9999C7.81077 15.6806 8.50786 17.2042 9.63846 18.3167L9.63846 18.4058L4.51489 23.3461C2.03429 20.9542 0.499999 17.6498 0.5 13.9999C0.5 10.35 2.03429 7.04567 4.51489 4.65378L9.63846 9.59411Z" fill="#FFFFFF" stroke="#98A2B3" stroke-linecap="round"></path>
    <path d="M18.4057 9.63846L18.3167 9.63846C17.2042 8.50786 15.6806 7.81077 13.9999 7.81077C12.3193 7.81077 10.7956 8.50786 9.68311 9.63846L9.5941 9.63846L4.65376 4.51489C7.04565 2.03428 10.35 0.499999 13.9999 0.499999C17.6498 0.5 20.9542 2.03429 23.3461 4.51489L18.4057 9.63846Z" fill="#FFFFFF" stroke="#98A2B3" stroke-linecap="round"></path>
    <path d="M18.3615 18.4059L18.3615 18.3169C19.4921 17.2044 20.1892 15.6807 20.1892 14.0001C20.1892 12.3194 19.4921 10.7958 18.3615 9.68326L18.3615 9.59425L23.4851 4.65391C25.9657 7.0458 27.5 10.3502 27.5 14.0001C27.5 17.65 25.9657 20.9543 23.4851 23.3462L18.3615 18.4059Z" fill="#FFFFFF" stroke="#98A2B3" stroke-linecap="round"></path>
    <circle cx="6.43846" cy="6.43846" r="6.43846" transform="matrix(1 0 0 -1 7.56152 20.4385)" fill="#FFFFFF" stroke="#98A2B3" stroke-linecap="round"></circle>
  </g>
  <text x="387.0" y="114.0" text-anchor="middle" font-size="9" fill="#667085" font-family="sans-serif">65</text>
  <g id="tooth-85" transform="translate(15.0, 174.0)">
    <path d="M22.1204 17.5986C19.0084 18.1012 12.3418 18.7333 5.052 18.0996C5.05427 18.3561 5.04478 18.6094 5.01978 18.8584C4.77867 21.251 3.87675 23.2205 2.99048 25.165C2.56644 26.0954 2.14515 27.0191 1.78345 28.001V28.002C1.56841 28.6061 1.38658 29.7903 1.25415 31.3223C1.1234 32.8349 1.04421 34.6326 1.01392 36.4268C0.983634 38.2207 1.00275 40.0056 1.06763 41.4902C1.13258 42.9765 1.24328 44.1167 1.38208 44.6768C1.72116 45.7738 2.42088 45.9398 2.58618 45.9385C2.68306 45.9377 2.77611 45.9657 2.85571 46.0156C3.92694 45.702 4.55813 44.7413 4.93091 43.333C5.33307 41.8134 5.38307 39.948 5.42505 38.2949C5.45477 37.1247 5.47987 36.0068 5.66333 35.2949C6.07321 33.7078 8.00457 28.6228 10.1428 25.2861C10.6794 24.4489 11.2414 23.7025 11.8088 23.1445C12.3648 22.5979 12.987 22.1723 13.6467 22.0957C14.3638 22.0126 14.9886 22.3522 15.4788 23.0283C15.9528 23.6824 16.3352 24.6877 16.634 26.0742V26.0752C17.6562 30.8226 15.9674 34.1511 14.3108 37.4404C13.206 39.634 12.1188 41.8013 11.7239 44.4277C11.617 45.1392 11.7596 45.4749 11.8997 45.627C12.0393 45.7783 12.2922 45.8725 12.6936 45.8359C13.0901 45.7998 13.5551 45.6384 13.9895 45.3877C14.424 45.1369 14.7896 44.819 15.01 44.5039L15.0217 44.4873L15.6877 43.5898C17.26 41.4197 18.9401 38.742 20.2932 35.9395C21.8436 32.7282 22.9436 29.3964 22.9944 26.4951C23.0144 25.3314 22.8099 23.9977 22.5862 22.5518C22.3404 20.9634 22.0749 19.2482 22.1204 17.5986Z" fill="white" stroke="#667085" stroke-linecap="round" stroke-linejoin="round"></path>
<path d="M25.5967 3.04785C23.0876 0.940328 20.9885 0.281002 19.0977 0.560547C17.1825 0.843741 15.3538 2.10643 13.4297 4.13086C13.3276 4.23822 13.183 4.29458 13.0352 4.28516C12.8874 4.27571 12.7516 4.20135 12.6641 4.08203C12.191 3.43618 11.7213 2.91428 11.2539 2.50488C10.4758 1.82341 9.70526 1.45406 8.92676 1.33105C7.56578 1.11619 6.04812 1.63843 4.25879 2.89551C3.10853 3.70415 2.52665 4.69468 2.29395 5.81152C2.05718 6.94838 2.1774 8.24269 2.49023 9.64453C2.80305 11.0462 3.29578 12.5052 3.77441 13.9766C4.20413 15.2975 4.62152 16.6302 4.85742 17.8906C12.4836 18.5868 19.4648 17.8619 22.3379 17.3594C22.3654 17.2307 22.3922 17.1019 22.4258 16.9746L22.4941 16.7344C22.7619 15.7254 23.3812 14.5547 24.0469 13.3584C24.7291 12.1323 25.4745 10.8547 26.0518 9.5752C26.6298 8.29387 27.0112 7.06811 27 5.96094C26.989 4.88234 26.6062 3.89616 25.5967 3.04785Z" fill="white" stroke="#667085" stroke-linecap="round" stroke-linejoin="round"></path>
  </g>
  <g id="tooth-85" transform="translate(15.5, 143.0)">
    <path d="M9.59414 18.3616H9.68316C10.7957 19.4922 12.3193 20.1893 14 20.1893C15.6806 20.1893 17.2043 19.4922 18.3168 18.3616H18.4058L23.3461 23.4851C20.9542 25.9657 17.6499 27.5 14 27.5C10.3501 27.5 7.0457 25.9657 4.65381 23.4851L9.59414 18.3616Z" fill="#FFFFFF" stroke="#98A2B3" stroke-linecap="round"></path>
    <path d="M9.63846 9.59411L9.63846 9.68313C8.50786 10.7956 7.81077 12.3193 7.81077 13.9999C7.81077 15.6806 8.50786 17.2042 9.63846 18.3167L9.63846 18.4058L4.51489 23.3461C2.03429 20.9542 0.499999 17.6498 0.5 13.9999C0.5 10.35 2.03429 7.04567 4.51489 4.65378L9.63846 9.59411Z" fill="#FFFFFF" stroke="#98A2B3" stroke-linecap="round"></path>
    <path d="M18.4057 9.63846L18.3167 9.63846C17.2042 8.50786 15.6806 7.81077 13.9999 7.81077C12.3193 7.81077 10.7956 8.50786 9.68311 9.63846L9.5941 9.63846L4.65376 4.51489C7.04565 2.03428 10.35 0.499999 13.9999 0.499999C17.6498 0.5 20.9542 2.03429 23.3461 4.51489L18.4057 9.63846Z" fill="#FFFFFF" stroke="#98A2B3" stroke-linecap="round"></path>
    <path d="M18.3615 18.4059L18.3615 18.3169C19.4921 17.2044 20.1892 15.6807 20.1892 14.0001C20.1892 12.3194 19.4921 10.7958 18.3615 9.68326L18.3615 9.59425L23.4851 4.65391C25.9657 7.0458 27.5 10.3502 27.5 14.0001C27.5 17.65 25.9657 20.9543 23.4851 23.3462L18.3615 18.4059Z" fill="#FFFFFF" stroke="#98A2B3" stroke-linecap="round"></path>
    <circle cx="6.43846" cy="6.43846" r="6.43846" transform="matrix(1 0 0 -1 7.56152 20.4385)" fill="#FFFFFF" stroke="#98A2B3" stroke-linecap="round"></circle>
  </g>
  <text x="29.0" y="238.0" text-anchor="middle" font-size="9" fill="#667085" font-family="sans-serif">85</text>
  <g id="tooth-84" transform="translate(52.5, 174.0)">
    <path d="M9.54599 18.0264C7.88404 17.9451 6.57883 18.0492 5.807 18.3741C5.76896 18.3901 5.72902 18.4018 5.68819 18.4081L5.19431 18.4839C5.26223 19.0577 5.29914 19.6344 5.29446 20.2148C5.26373 24.0827 4.45402 28.7899 3.32579 32.5073C2.60804 34.8774 1.62919 37.2046 1.11559 39.6293C0.351761 43.2432 0.310282 47.8096 0.927065 51.4419C1.12022 52.5847 1.37493 53.6499 2.36257 54.3424C2.77957 54.2959 2.98848 54.3024 3.24528 53.9403C4.1451 52.6751 4.49198 50.2659 4.93313 48.7377C5.686 46.1419 6.5788 43.5886 7.34266 40.997C8.47965 37.1447 10.3568 27.674 14.0135 25.5204C14.5315 25.4528 14.7663 25.3928 15.2075 25.7273C16.7615 26.9054 17.0597 31.9876 17.2989 33.839C17.9113 37.7888 18.5441 42.9196 17.1634 46.6901C16.4325 48.692 15.359 50.5432 14.5732 52.5211C14.312 53.1797 13.9522 54.1482 14.2551 54.829L14.8413 55C15.1638 54.9257 15.469 54.8212 15.7367 54.626C16.9659 53.7291 18.0767 52.1344 19.0358 50.9563C25.2582 43.3044 23.9455 36.5846 23.9433 27.634C23.9433 25.3202 24.1603 23.0723 24.5 20.7976C22.6809 20.3215 18.8396 19.3576 15.0141 18.6947C13.0918 18.3615 11.1847 18.1065 9.54599 18.0264Z" fill="white" stroke="#667085" stroke-linecap="round" stroke-linejoin="round"></path>
<path d="M11.082 1.33691C10.1556 0.641544 9.01259 0.380211 7.85059 0.550781H7.84961C6.73836 0.71339 5.81142 1.44373 5.08008 2.38184L4.93652 2.57227C2.85978 5.4137 2.7109 8.16486 3.23242 10.9727C3.49555 12.3891 3.92718 13.81 4.37305 15.2705C4.76964 16.5696 5.17733 17.9 5.46582 19.25L5.58203 19.2314C6.57636 18.8313 8.04759 18.7486 9.67676 18.8291C11.3647 18.9126 13.3061 19.1764 15.2373 19.5146C18.7884 20.1367 22.3438 21.0209 24.2998 21.5312C24.9021 19.3392 25.8179 16.4988 26.4521 13.6123C27.0927 10.6973 27.4004 7.89991 26.8301 5.88379L26.7041 5.49121C25.9326 3.3553 24.2046 1.66993 22.1406 0.666016C20.7913 0.573065 19.857 1.1214 18.8838 1.81445C17.9147 2.50457 16.8389 3.40835 15.3496 3.59082C14.395 3.70774 13.5712 3.29367 12.8926 2.81152C12.5502 2.56828 12.2256 2.29361 11.9268 2.03711C11.6214 1.77499 11.3474 1.53599 11.082 1.33691Z" fill="white" stroke="#667085" stroke-linecap="round" stroke-linejoin="round"></path>
  </g>
  <g id="tooth-84" transform="translate(53.5, 143.0)">
    <path d="M9.59414 18.3616H9.68316C10.7957 19.4922 12.3193 20.1893 14 20.1893C15.6806 20.1893 17.2043 19.4922 18.3168 18.3616H18.4058L23.3461 23.4851C20.9542 25.9657 17.6499 27.5 14 27.5C10.3501 27.5 7.0457 25.9657 4.65381 23.4851L9.59414 18.3616Z" fill="#FFFFFF" stroke="#98A2B3" stroke-linecap="round"></path>
    <path d="M9.63846 9.59411L9.63846 9.68313C8.50786 10.7956 7.81077 12.3193 7.81077 13.9999C7.81077 15.6806 8.50786 17.2042 9.63846 18.3167L9.63846 18.4058L4.51489 23.3461C2.03429 20.9542 0.499999 17.6498 0.5 13.9999C0.5 10.35 2.03429 7.04567 4.51489 4.65378L9.63846 9.59411Z" fill="#FFFFFF" stroke="#98A2B3" stroke-linecap="round"></path>
    <path d="M18.4057 9.63846L18.3167 9.63846C17.2042 8.50786 15.6806 7.81077 13.9999 7.81077C12.3193 7.81077 10.7956 8.50786 9.68311 9.63846L9.5941 9.63846L4.65376 4.51489C7.04565 2.03428 10.35 0.499999 13.9999 0.499999C17.6498 0.5 20.9542 2.03429 23.3461 4.51489L18.4057 9.63846Z" fill="#FFFFFF" stroke="#98A2B3" stroke-linecap="round"></path>
    <path d="M18.3615 18.4059L18.3615 18.3169C19.4921 17.2044 20.1892 15.6807 20.1892 14.0001C20.1892 12.3194 19.4921 10.7958 18.3615 9.68326L18.3615 9.59425L23.4851 4.65391C25.9657 7.0458 27.5 10.3502 27.5 14.0001C27.5 17.65 25.9657 20.9543 23.4851 23.3462L18.3615 18.4059Z" fill="#FFFFFF" stroke="#98A2B3" stroke-linecap="round"></path>
    <circle cx="6.43846" cy="6.43846" r="6.43846" transform="matrix(1 0 0 -1 7.56152 20.4385)" fill="#FFFFFF" stroke="#98A2B3" stroke-linecap="round"></circle>
  </g>
  <text x="67.0" y="247.0" text-anchor="middle" font-size="9" fill="#667085" font-family="sans-serif">84</text>
  <g id="tooth-83" transform="translate(94.0, 174.0)">
    <path d="M17.3954 23C13.4425 24.2323 9.21452 24.021 5.21068 23.2208C6.05423 27.8885 5.08638 32.0224 5.08435 36.6408C5.08435 40.2449 6.17853 43.7386 6.30689 47.3337C6.48416 52.3489 5.67932 57.4275 6.13167 62.4317C6.21928 63.2598 6.39655 64.1354 6.89576 64.8174C7.33384 65.0453 7.40515 65.0558 7.88602 64.9408C9.11264 64.044 9.61795 61.4343 10.1681 60.0436C11.3805 56.9756 12.7925 53.9507 13.6463 50.7586C14.1699 48.8071 14.1984 46.7162 14.5102 44.72C15.1806 40.4356 15.9976 36.1925 16.5417 31.8844C16.9206 28.8836 16.6883 25.981 17.3954 23Z" fill="white" stroke="#667085" stroke-linecap="round" stroke-linejoin="round"></path>
<path d="M12.9616 0.539368C12.3137 0.584418 11.6494 0.6527 11.0117 0.780376C8.60529 1.26179 7.38886 3.28583 5.4878 4.5428C4.40177 5.26199 2.15227 5.87734 1.47987 6.96967C-0.03405 9.42623 4.2571 19.8862 5.00693 22.8872C6.12353 23.1784 7.24623 23.328 8.38931 23.4779C11.3112 23.562 14.2331 23.628 17.0959 22.9547C18.946 19.7887 20.1747 16.9604 20.5476 13.2711C20.9123 9.66361 20.4681 5.80644 18.0515 2.91755C16.6028 1.183 15.1704 0.735327 12.9616 0.539368Z" fill="white" stroke="#667085" stroke-linecap="round" stroke-linejoin="round"></path>
  </g>
  <g id="tooth-83" transform="translate(91.5, 143.0)">
    <path d="M9.59414 18.3616H9.68316C10.7957 19.4922 12.3193 20.1893 14 20.1893C15.6806 20.1893 17.2043 19.4922 18.3168 18.3616H18.4058L23.3461 23.4851C20.9542 25.9657 17.6499 27.5 14 27.5C10.3501 27.5 7.0457 25.9657 4.65381 23.4851L9.59414 18.3616Z" fill="#FFFFFF" stroke="#98A2B3" stroke-linecap="round"></path>
    <path d="M9.63846 9.59411L9.63846 9.68313C8.50786 10.7956 7.81077 12.3193 7.81077 13.9999C7.81077 15.6806 8.50786 17.2042 9.63846 18.3167L9.63846 18.4058L4.51489 23.3461C2.03429 20.9542 0.499999 17.6498 0.5 13.9999C0.5 10.35 2.03429 7.04567 4.51489 4.65378L9.63846 9.59411Z" fill="#FFFFFF" stroke="#98A2B3" stroke-linecap="round"></path>
    <path d="M18.4057 9.63846L18.3167 9.63846C17.2042 8.50786 15.6806 7.81077 13.9999 7.81077C12.3193 7.81077 10.7956 8.50786 9.68311 9.63846L9.5941 9.63846L4.65376 4.51489C7.04565 2.03428 10.35 0.499999 13.9999 0.499999C17.6498 0.5 20.9542 2.03429 23.3461 4.51489L18.4057 9.63846Z" fill="#FFFFFF" stroke="#98A2B3" stroke-linecap="round"></path>
    <path d="M18.3615 18.4059L18.3615 18.3169C19.4921 17.2044 20.1892 15.6807 20.1892 14.0001C20.1892 12.3194 19.4921 10.7958 18.3615 9.68326L18.3615 9.59425L23.4851 4.65391C25.9657 7.0458 27.5 10.3502 27.5 14.0001C27.5 17.65 25.9657 20.9543 23.4851 23.3462L18.3615 18.4059Z" fill="#FFFFFF" stroke="#98A2B3" stroke-linecap="round"></path>
    <circle cx="6.43846" cy="6.43846" r="6.43846" transform="matrix(1 0 0 -1 7.56152 20.4385)" fill="#FFFFFF" stroke="#98A2B3" stroke-linecap="round"></circle>
  </g>
  <text x="105.0" y="257.0" text-anchor="middle" font-size="9" fill="#667085" font-family="sans-serif">83</text>
  <g id="tooth-82" transform="translate(135.5, 174.0)">
    <path d="M4 21.6066C5.56495 21.6984 8.5 21.5 11 21C11.5116 24.5644 10.5495 28.96 10.3874 32.4303C10.2825 34.6646 10.6839 37.459 10.8091 39.666C10.9783 42.6267 9.70044 55.812 7.23526 56.7451C6.2132 55.7974 6.54937 48.0897 6.3074 46.1447C6.00111 43.6656 5.42755 41.3095 5.11112 38.8357C4.8421 36.0911 5.13841 33.2243 4.93877 30.5402C4.71269 27.4889 4.22515 24.6442 4 21.6066Z" fill="white" stroke="#667085" stroke-linecap="round" stroke-linejoin="round"></path>
<path d="M9.57033 21.0284C10.4084 20.7277 10.7783 20.7494 11.1465 19.8462C12.6554 16.1394 14.218 12.1585 13.8596 8.09663C13.7323 6.65357 13.82 1.95279 12.5617 1.15723C10.2517 0.598333 4.35458 2.80362 1.93721 3.32971C1.56275 3.41104 1.03617 4.30759 1.02059 4.6486C0.0143962 10.5385 3.25253 16.0076 3.97411 21.3558C5.58476 21.3743 7.99202 21.2363 9.57033 21.0284Z" fill="white" stroke="#667085" stroke-linecap="round" stroke-linejoin="round"></path>
  </g>
  <g id="tooth-82" transform="translate(129.5, 143.0)">
    <path d="M9.59414 18.3616H9.68316C10.7957 19.4922 12.3193 20.1893 14 20.1893C15.6806 20.1893 17.2043 19.4922 18.3168 18.3616H18.4058L23.3461 23.4851C20.9542 25.9657 17.6499 27.5 14 27.5C10.3501 27.5 7.0457 25.9657 4.65381 23.4851L9.59414 18.3616Z" fill="#FFFFFF" stroke="#98A2B3" stroke-linecap="round"></path>
    <path d="M9.63846 9.59411L9.63846 9.68313C8.50786 10.7956 7.81077 12.3193 7.81077 13.9999C7.81077 15.6806 8.50786 17.2042 9.63846 18.3167L9.63846 18.4058L4.51489 23.3461C2.03429 20.9542 0.499999 17.6498 0.5 13.9999C0.5 10.35 2.03429 7.04567 4.51489 4.65378L9.63846 9.59411Z" fill="#FFFFFF" stroke="#98A2B3" stroke-linecap="round"></path>
    <path d="M18.4057 9.63846L18.3167 9.63846C17.2042 8.50786 15.6806 7.81077 13.9999 7.81077C12.3193 7.81077 10.7956 8.50786 9.68311 9.63846L9.5941 9.63846L4.65376 4.51489C7.04565 2.03428 10.35 0.499999 13.9999 0.499999C17.6498 0.5 20.9542 2.03429 23.3461 4.51489L18.4057 9.63846Z" fill="#FFFFFF" stroke="#98A2B3" stroke-linecap="round"></path>
    <path d="M18.3615 18.4059L18.3615 18.3169C19.4921 17.2044 20.1892 15.6807 20.1892 14.0001C20.1892 12.3194 19.4921 10.7958 18.3615 9.68326L18.3615 9.59425L23.4851 4.65391C25.9657 7.0458 27.5 10.3502 27.5 14.0001C27.5 17.65 25.9657 20.9543 23.4851 23.3462L18.3615 18.4059Z" fill="#FFFFFF" stroke="#98A2B3" stroke-linecap="round"></path>
    <circle cx="6.43846" cy="6.43846" r="6.43846" transform="matrix(1 0 0 -1 7.56152 20.4385)" fill="#FFFFFF" stroke="#98A2B3" stroke-linecap="round"></circle>
  </g>
  <text x="143.0" y="248.0" text-anchor="middle" font-size="9" fill="#667085" font-family="sans-serif">82</text>
  <g id="tooth-81" transform="translate(172.0, 174.0)">
    <path d="M3.95897 18.2241C6.23761 19.5134 9.78951 19.2564 12.1973 18.5782C12.5039 18.4922 13.0297 18.277 13.4132 18.113C13.4603 18.5136 13.4952 18.9131 13.4895 19.3109C13.4755 20.262 13.364 21.209 13.2521 22.1565C13.1136 23.3284 12.9746 24.5013 13.0209 25.6847C13.0707 26.9336 13.2593 28.1879 13.4479 29.4407C13.5918 30.3969 13.7357 31.3527 13.8177 32.3055C13.9358 33.6698 13.8986 35.0441 13.8614 36.4176C13.8325 37.4862 13.8035 38.5546 13.8478 39.6181C13.8971 40.8029 14.0974 42.1052 14.3016 43.4368C14.6828 45.9232 15.0798 48.5134 14.5444 50.6384C14.3782 51.3022 13.9434 51.7305 13.3921 52.0713C12.8168 52.068 12.4871 51.9593 12.0595 51.5179C11.1965 50.6268 10.6285 49.4352 10.0925 48.3103L9.99044 48.0958C7.82113 43.5605 7.07765 38.959 6.30591 34.1825C6.0974 32.892 5.887 31.5883 5.64569 30.2701C5.46817 29.2983 5.26764 28.3434 5.06913 27.3956C4.49407 24.6502 3.93112 21.9605 3.95786 19.0657C3.95491 18.8382 3.93224 18.5649 3.90819 18.277C3.90576 18.2478 3.90343 18.2185 3.90097 18.189C3.92045 18.2003 3.93929 18.2129 3.95897 18.2241Z" fill="white" stroke="#667085" stroke-linecap="round" stroke-linejoin="round"></path>
<path d="M14.8606 1.88149C14.4442 1.85384 12.5393 1.79009 10.4013 1.78164C8.10987 1.77259 5.6538 1.82716 4.53957 2.03442C3.8206 2.16842 3.33003 2.49397 2.93067 3.0818L2.93057 3.08277C2.36243 3.91829 2.04898 5.01921 1.93011 6.30265C1.81152 7.58318 1.89009 9.01071 2.07499 10.4692C2.44656 13.3999 3.23159 16.3457 3.66043 18.4184L3.66668 18.4515L3.66895 18.4851C3.69259 18.8229 3.7046 18.9835 3.79596 19.1471C3.84763 19.2381 3.9179 19.2991 4.12177 19.3502L4.12274 19.3503C5.17108 19.6141 6.59735 19.7835 8.00662 19.7496C9.42701 19.7153 10.7636 19.4758 11.6743 18.9753C13.0019 18.2457 13.7782 17.0107 14.2254 15.5661L14.3109 15.2748C14.5308 14.4713 14.8648 12.0621 15.1164 9.59107C15.2412 8.36532 15.3447 7.14044 15.402 6.11434C15.4603 5.07234 15.4677 4.27817 15.4172 3.88829L15.4182 3.88742C15.3599 3.44358 15.2559 2.88213 15.1132 2.43521C15.041 2.20895 14.9671 2.03918 14.8993 1.93281C14.8842 1.90926 14.8701 1.89328 14.8606 1.88149Z" fill="white" stroke="#667085" stroke-linecap="round"></path>
  </g>
  <g id="tooth-81" transform="translate(167.5, 143.0)">
    <path d="M9.59414 18.3616H9.68316C10.7957 19.4922 12.3193 20.1893 14 20.1893C15.6806 20.1893 17.2043 19.4922 18.3168 18.3616H18.4058L23.3461 23.4851C20.9542 25.9657 17.6499 27.5 14 27.5C10.3501 27.5 7.0457 25.9657 4.65381 23.4851L9.59414 18.3616Z" fill="#FFFFFF" stroke="#98A2B3" stroke-linecap="round"></path>
    <path d="M9.63846 9.59411L9.63846 9.68313C8.50786 10.7956 7.81077 12.3193 7.81077 13.9999C7.81077 15.6806 8.50786 17.2042 9.63846 18.3167L9.63846 18.4058L4.51489 23.3461C2.03429 20.9542 0.499999 17.6498 0.5 13.9999C0.5 10.35 2.03429 7.04567 4.51489 4.65378L9.63846 9.59411Z" fill="#FFFFFF" stroke="#98A2B3" stroke-linecap="round"></path>
    <path d="M18.4057 9.63846L18.3167 9.63846C17.2042 8.50786 15.6806 7.81077 13.9999 7.81077C12.3193 7.81077 10.7956 8.50786 9.68311 9.63846L9.5941 9.63846L4.65376 4.51489C7.04565 2.03428 10.35 0.499999 13.9999 0.499999C17.6498 0.5 20.9542 2.03429 23.3461 4.51489L18.4057 9.63846Z" fill="#FFFFFF" stroke="#98A2B3" stroke-linecap="round"></path>
    <path d="M18.3615 18.4059L18.3615 18.3169C19.4921 17.2044 20.1892 15.6807 20.1892 14.0001C20.1892 12.3194 19.4921 10.7958 18.3615 9.68326L18.3615 9.59425L23.4851 4.65391C25.9657 7.0458 27.5 10.3502 27.5 14.0001C27.5 17.65 25.9657 20.9543 23.4851 23.3462L18.3615 18.4059Z" fill="#FFFFFF" stroke="#98A2B3" stroke-linecap="round"></path>
    <circle cx="6.43846" cy="6.43846" r="6.43846" transform="matrix(1 0 0 -1 7.56152 20.4385)" fill="#FFFFFF" stroke="#98A2B3" stroke-linecap="round"></circle>
  </g>
  <text x="181.0" y="246.0" text-anchor="middle" font-size="9" fill="#667085" font-family="sans-serif">81</text>
  <g id="tooth-71" transform="translate(244.0, 174.0) scale(-1, 1)">
    <path d="M3.95897 18.2241C6.23761 19.5134 9.78951 19.2564 12.1973 18.5782C12.5039 18.4922 13.0297 18.277 13.4132 18.113C13.4603 18.5136 13.4952 18.9131 13.4895 19.3109C13.4755 20.262 13.364 21.209 13.2521 22.1565C13.1136 23.3284 12.9746 24.5013 13.0209 25.6847C13.0707 26.9336 13.2593 28.1879 13.4479 29.4407C13.5918 30.3969 13.7357 31.3527 13.8177 32.3055C13.9358 33.6698 13.8986 35.0441 13.8614 36.4176C13.8325 37.4862 13.8035 38.5546 13.8478 39.6181C13.8971 40.8029 14.0974 42.1052 14.3016 43.4368C14.6828 45.9232 15.0798 48.5134 14.5444 50.6384C14.3782 51.3022 13.9434 51.7305 13.3921 52.0713C12.8168 52.068 12.4871 51.9593 12.0595 51.5179C11.1965 50.6268 10.6285 49.4352 10.0925 48.3103L9.99044 48.0958C7.82113 43.5605 7.07765 38.959 6.30591 34.1825C6.0974 32.892 5.887 31.5883 5.64569 30.2701C5.46817 29.2983 5.26764 28.3434 5.06913 27.3956C4.49407 24.6502 3.93112 21.9605 3.95786 19.0657C3.95491 18.8382 3.93224 18.5649 3.90819 18.277C3.90576 18.2478 3.90343 18.2185 3.90097 18.189C3.92045 18.2003 3.93929 18.2129 3.95897 18.2241Z" fill="white" stroke="#667085" stroke-linecap="round" stroke-linejoin="round"></path>
<path d="M14.8606 1.88149C14.4442 1.85384 12.5393 1.79009 10.4013 1.78164C8.10987 1.77259 5.6538 1.82716 4.53957 2.03442C3.8206 2.16842 3.33003 2.49397 2.93067 3.0818L2.93057 3.08277C2.36243 3.91829 2.04898 5.01921 1.93011 6.30265C1.81152 7.58318 1.89009 9.01071 2.07499 10.4692C2.44656 13.3999 3.23159 16.3457 3.66043 18.4184L3.66668 18.4515L3.66895 18.4851C3.69259 18.8229 3.7046 18.9835 3.79596 19.1471C3.84763 19.2381 3.9179 19.2991 4.12177 19.3502L4.12274 19.3503C5.17108 19.6141 6.59735 19.7835 8.00662 19.7496C9.42701 19.7153 10.7636 19.4758 11.6743 18.9753C13.0019 18.2457 13.7782 17.0107 14.2254 15.5661L14.3109 15.2748C14.5308 14.4713 14.8648 12.0621 15.1164 9.59107C15.2412 8.36532 15.3447 7.14044 15.402 6.11434C15.4603 5.07234 15.4677 4.27817 15.4172 3.88829L15.4182 3.88742C15.3599 3.44358 15.2559 2.88213 15.1132 2.43521C15.041 2.20895 14.9671 2.03918 14.8993 1.93281C14.8842 1.90926 14.8701 1.89328 14.8606 1.88149Z" fill="white" stroke="#667085" stroke-linecap="round"></path>
  </g>
  <g id="tooth-71" transform="translate(221.5, 143.0)">
    <path d="M9.59414 18.3616H9.68316C10.7957 19.4922 12.3193 20.1893 14 20.1893C15.6806 20.1893 17.2043 19.4922 18.3168 18.3616H18.4058L23.3461 23.4851C20.9542 25.9657 17.6499 27.5 14 27.5C10.3501 27.5 7.0457 25.9657 4.65381 23.4851L9.59414 18.3616Z" fill="#FFFFFF" stroke="#98A2B3" stroke-linecap="round"></path>
    <path d="M9.63846 9.59411L9.63846 9.68313C8.50786 10.7956 7.81077 12.3193 7.81077 13.9999C7.81077 15.6806 8.50786 17.2042 9.63846 18.3167L9.63846 18.4058L4.51489 23.3461C2.03429 20.9542 0.499999 17.6498 0.5 13.9999C0.5 10.35 2.03429 7.04567 4.51489 4.65378L9.63846 9.59411Z" fill="#FFFFFF" stroke="#98A2B3" stroke-linecap="round"></path>
    <path d="M18.4057 9.63846L18.3167 9.63846C17.2042 8.50786 15.6806 7.81077 13.9999 7.81077C12.3193 7.81077 10.7956 8.50786 9.68311 9.63846L9.5941 9.63846L4.65376 4.51489C7.04565 2.03428 10.35 0.499999 13.9999 0.499999C17.6498 0.5 20.9542 2.03429 23.3461 4.51489L18.4057 9.63846Z" fill="#FFFFFF" stroke="#98A2B3" stroke-linecap="round"></path>
    <path d="M18.3615 18.4059L18.3615 18.3169C19.4921 17.2044 20.1892 15.6807 20.1892 14.0001C20.1892 12.3194 19.4921 10.7958 18.3615 9.68326L18.3615 9.59425L23.4851 4.65391C25.9657 7.0458 27.5 10.3502 27.5 14.0001C27.5 17.65 25.9657 20.9543 23.4851 23.3462L18.3615 18.4059Z" fill="#FFFFFF" stroke="#98A2B3" stroke-linecap="round"></path>
    <circle cx="6.43846" cy="6.43846" r="6.43846" transform="matrix(1 0 0 -1 7.56152 20.4385)" fill="#FFFFFF" stroke="#98A2B3" stroke-linecap="round"></circle>
  </g>
  <text x="235.0" y="246.0" text-anchor="middle" font-size="9" fill="#667085" font-family="sans-serif">71</text>
  <g id="tooth-72" transform="translate(280.5, 174.0) scale(-1, 1)">
    <path d="M4 21.6066C5.56495 21.6984 8.5 21.5 11 21C11.5116 24.5644 10.5495 28.96 10.3874 32.4303C10.2825 34.6646 10.6839 37.459 10.8091 39.666C10.9783 42.6267 9.70044 55.812 7.23526 56.7451C6.2132 55.7974 6.54937 48.0897 6.3074 46.1447C6.00111 43.6656 5.42755 41.3095 5.11112 38.8357C4.8421 36.0911 5.13841 33.2243 4.93877 30.5402C4.71269 27.4889 4.22515 24.6442 4 21.6066Z" fill="white" stroke="#667085" stroke-linecap="round" stroke-linejoin="round"></path>
<path d="M9.57033 21.0284C10.4084 20.7277 10.7783 20.7494 11.1465 19.8462C12.6554 16.1394 14.218 12.1585 13.8596 8.09663C13.7323 6.65357 13.82 1.95279 12.5617 1.15723C10.2517 0.598333 4.35458 2.80362 1.93721 3.32971C1.56275 3.41104 1.03617 4.30759 1.02059 4.6486C0.0143962 10.5385 3.25253 16.0076 3.97411 21.3558C5.58476 21.3743 7.99202 21.2363 9.57033 21.0284Z" fill="white" stroke="#667085" stroke-linecap="round" stroke-linejoin="round"></path>
  </g>
  <g id="tooth-72" transform="translate(259.5, 143.0)">
    <path d="M9.59414 18.3616H9.68316C10.7957 19.4922 12.3193 20.1893 14 20.1893C15.6806 20.1893 17.2043 19.4922 18.3168 18.3616H18.4058L23.3461 23.4851C20.9542 25.9657 17.6499 27.5 14 27.5C10.3501 27.5 7.0457 25.9657 4.65381 23.4851L9.59414 18.3616Z" fill="#FFFFFF" stroke="#98A2B3" stroke-linecap="round"></path>
    <path d="M9.63846 9.59411L9.63846 9.68313C8.50786 10.7956 7.81077 12.3193 7.81077 13.9999C7.81077 15.6806 8.50786 17.2042 9.63846 18.3167L9.63846 18.4058L4.51489 23.3461C2.03429 20.9542 0.499999 17.6498 0.5 13.9999C0.5 10.35 2.03429 7.04567 4.51489 4.65378L9.63846 9.59411Z" fill="#FFFFFF" stroke="#98A2B3" stroke-linecap="round"></path>
    <path d="M18.4057 9.63846L18.3167 9.63846C17.2042 8.50786 15.6806 7.81077 13.9999 7.81077C12.3193 7.81077 10.7956 8.50786 9.68311 9.63846L9.5941 9.63846L4.65376 4.51489C7.04565 2.03428 10.35 0.499999 13.9999 0.499999C17.6498 0.5 20.9542 2.03429 23.3461 4.51489L18.4057 9.63846Z" fill="#FFFFFF" stroke="#98A2B3" stroke-linecap="round"></path>
    <path d="M18.3615 18.4059L18.3615 18.3169C19.4921 17.2044 20.1892 15.6807 20.1892 14.0001C20.1892 12.3194 19.4921 10.7958 18.3615 9.68326L18.3615 9.59425L23.4851 4.65391C25.9657 7.0458 27.5 10.3502 27.5 14.0001C27.5 17.65 25.9657 20.9543 23.4851 23.3462L18.3615 18.4059Z" fill="#FFFFFF" stroke="#98A2B3" stroke-linecap="round"></path>
    <circle cx="6.43846" cy="6.43846" r="6.43846" transform="matrix(1 0 0 -1 7.56152 20.4385)" fill="#FFFFFF" stroke="#98A2B3" stroke-linecap="round"></circle>
  </g>
  <text x="273.0" y="248.0" text-anchor="middle" font-size="9" fill="#667085" font-family="sans-serif">72</text>
  <g id="tooth-73" transform="translate(322.0, 174.0) scale(-1, 1)">
    <path d="M17.3954 23C13.4425 24.2323 9.21452 24.021 5.21068 23.2208C6.05423 27.8885 5.08638 32.0224 5.08435 36.6408C5.08435 40.2449 6.17853 43.7386 6.30689 47.3337C6.48416 52.3489 5.67932 57.4275 6.13167 62.4317C6.21928 63.2598 6.39655 64.1354 6.89576 64.8174C7.33384 65.0453 7.40515 65.0558 7.88602 64.9408C9.11264 64.044 9.61795 61.4343 10.1681 60.0436C11.3805 56.9756 12.7925 53.9507 13.6463 50.7586C14.1699 48.8071 14.1984 46.7162 14.5102 44.72C15.1806 40.4356 15.9976 36.1925 16.5417 31.8844C16.9206 28.8836 16.6883 25.981 17.3954 23Z" fill="white" stroke="#667085" stroke-linecap="round" stroke-linejoin="round"></path>
<path d="M12.9616 0.539368C12.3137 0.584418 11.6494 0.6527 11.0117 0.780376C8.60529 1.26179 7.38886 3.28583 5.4878 4.5428C4.40177 5.26199 2.15227 5.87734 1.47987 6.96967C-0.03405 9.42623 4.2571 19.8862 5.00693 22.8872C6.12353 23.1784 7.24623 23.328 8.38931 23.4779C11.3112 23.562 14.2331 23.628 17.0959 22.9547C18.946 19.7887 20.1747 16.9604 20.5476 13.2711C20.9123 9.66361 20.4681 5.80644 18.0515 2.91755C16.6028 1.183 15.1704 0.735327 12.9616 0.539368Z" fill="white" stroke="#667085" stroke-linecap="round" stroke-linejoin="round"></path>
  </g>
  <g id="tooth-73" transform="translate(297.5, 143.0)">
    <path d="M9.59414 18.3616H9.68316C10.7957 19.4922 12.3193 20.1893 14 20.1893C15.6806 20.1893 17.2043 19.4922 18.3168 18.3616H18.4058L23.3461 23.4851C20.9542 25.9657 17.6499 27.5 14 27.5C10.3501 27.5 7.0457 25.9657 4.65381 23.4851L9.59414 18.3616Z" fill="#FFFFFF" stroke="#98A2B3" stroke-linecap="round"></path>
    <path d="M9.63846 9.59411L9.63846 9.68313C8.50786 10.7956 7.81077 12.3193 7.81077 13.9999C7.81077 15.6806 8.50786 17.2042 9.63846 18.3167L9.63846 18.4058L4.51489 23.3461C2.03429 20.9542 0.499999 17.6498 0.5 13.9999C0.5 10.35 2.03429 7.04567 4.51489 4.65378L9.63846 9.59411Z" fill="#FFFFFF" stroke="#98A2B3" stroke-linecap="round"></path>
    <path d="M18.4057 9.63846L18.3167 9.63846C17.2042 8.50786 15.6806 7.81077 13.9999 7.81077C12.3193 7.81077 10.7956 8.50786 9.68311 9.63846L9.5941 9.63846L4.65376 4.51489C7.04565 2.03428 10.35 0.499999 13.9999 0.499999C17.6498 0.5 20.9542 2.03429 23.3461 4.51489L18.4057 9.63846Z" fill="#FFFFFF" stroke="#98A2B3" stroke-linecap="round"></path>
    <path d="M18.3615 18.4059L18.3615 18.3169C19.4921 17.2044 20.1892 15.6807 20.1892 14.0001C20.1892 12.3194 19.4921 10.7958 18.3615 9.68326L18.3615 9.59425L23.4851 4.65391C25.9657 7.0458 27.5 10.3502 27.5 14.0001C27.5 17.65 25.9657 20.9543 23.4851 23.3462L18.3615 18.4059Z" fill="#FFFFFF" stroke="#98A2B3" stroke-linecap="round"></path>
    <circle cx="6.43846" cy="6.43846" r="6.43846" transform="matrix(1 0 0 -1 7.56152 20.4385)" fill="#FFFFFF" stroke="#98A2B3" stroke-linecap="round"></circle>
  </g>
  <text x="311.0" y="257.0" text-anchor="middle" font-size="9" fill="#667085" font-family="sans-serif">73</text>
  <g id="tooth-74" transform="translate(363.5, 174.0) scale(-1, 1)">
    <path d="M9.54599 18.0264C7.88404 17.9451 6.57883 18.0492 5.807 18.3741C5.76896 18.3901 5.72902 18.4018 5.68819 18.4081L5.19431 18.4839C5.26223 19.0577 5.29914 19.6344 5.29446 20.2148C5.26373 24.0827 4.45402 28.7899 3.32579 32.5073C2.60804 34.8774 1.62919 37.2046 1.11559 39.6293C0.351761 43.2432 0.310282 47.8096 0.927065 51.4419C1.12022 52.5847 1.37493 53.6499 2.36257 54.3424C2.77957 54.2959 2.98848 54.3024 3.24528 53.9403C4.1451 52.6751 4.49198 50.2659 4.93313 48.7377C5.686 46.1419 6.5788 43.5886 7.34266 40.997C8.47965 37.1447 10.3568 27.674 14.0135 25.5204C14.5315 25.4528 14.7663 25.3928 15.2075 25.7273C16.7615 26.9054 17.0597 31.9876 17.2989 33.839C17.9113 37.7888 18.5441 42.9196 17.1634 46.6901C16.4325 48.692 15.359 50.5432 14.5732 52.5211C14.312 53.1797 13.9522 54.1482 14.2551 54.829L14.8413 55C15.1638 54.9257 15.469 54.8212 15.7367 54.626C16.9659 53.7291 18.0767 52.1344 19.0358 50.9563C25.2582 43.3044 23.9455 36.5846 23.9433 27.634C23.9433 25.3202 24.1603 23.0723 24.5 20.7976C22.6809 20.3215 18.8396 19.3576 15.0141 18.6947C13.0918 18.3615 11.1847 18.1065 9.54599 18.0264Z" fill="white" stroke="#667085" stroke-linecap="round" stroke-linejoin="round"></path>
<path d="M11.082 1.33691C10.1556 0.641544 9.01259 0.380211 7.85059 0.550781H7.84961C6.73836 0.71339 5.81142 1.44373 5.08008 2.38184L4.93652 2.57227C2.85978 5.4137 2.7109 8.16486 3.23242 10.9727C3.49555 12.3891 3.92718 13.81 4.37305 15.2705C4.76964 16.5696 5.17733 17.9 5.46582 19.25L5.58203 19.2314C6.57636 18.8313 8.04759 18.7486 9.67676 18.8291C11.3647 18.9126 13.3061 19.1764 15.2373 19.5146C18.7884 20.1367 22.3438 21.0209 24.2998 21.5312C24.9021 19.3392 25.8179 16.4988 26.4521 13.6123C27.0927 10.6973 27.4004 7.89991 26.8301 5.88379L26.7041 5.49121C25.9326 3.3553 24.2046 1.66993 22.1406 0.666016C20.7913 0.573065 19.857 1.1214 18.8838 1.81445C17.9147 2.50457 16.8389 3.40835 15.3496 3.59082C14.395 3.70774 13.5712 3.29367 12.8926 2.81152C12.5502 2.56828 12.2256 2.29361 11.9268 2.03711C11.6214 1.77499 11.3474 1.53599 11.082 1.33691Z" fill="white" stroke="#667085" stroke-linecap="round" stroke-linejoin="round"></path>
  </g>
  <g id="tooth-74" transform="translate(335.5, 143.0)">
    <path d="M9.59414 18.3616H9.68316C10.7957 19.4922 12.3193 20.1893 14 20.1893C15.6806 20.1893 17.2043 19.4922 18.3168 18.3616H18.4058L23.3461 23.4851C20.9542 25.9657 17.6499 27.5 14 27.5C10.3501 27.5 7.0457 25.9657 4.65381 23.4851L9.59414 18.3616Z" fill="#FFFFFF" stroke="#98A2B3" stroke-linecap="round"></path>
    <path d="M9.63846 9.59411L9.63846 9.68313C8.50786 10.7956 7.81077 12.3193 7.81077 13.9999C7.81077 15.6806 8.50786 17.2042 9.63846 18.3167L9.63846 18.4058L4.51489 23.3461C2.03429 20.9542 0.499999 17.6498 0.5 13.9999C0.5 10.35 2.03429 7.04567 4.51489 4.65378L9.63846 9.59411Z" fill="#FFFFFF" stroke="#98A2B3" stroke-linecap="round"></path>
    <path d="M18.4057 9.63846L18.3167 9.63846C17.2042 8.50786 15.6806 7.81077 13.9999 7.81077C12.3193 7.81077 10.7956 8.50786 9.68311 9.63846L9.5941 9.63846L4.65376 4.51489C7.04565 2.03428 10.35 0.499999 13.9999 0.499999C17.6498 0.5 20.9542 2.03429 23.3461 4.51489L18.4057 9.63846Z" fill="#FFFFFF" stroke="#98A2B3" stroke-linecap="round"></path>
    <path d="M18.3615 18.4059L18.3615 18.3169C19.4921 17.2044 20.1892 15.6807 20.1892 14.0001C20.1892 12.3194 19.4921 10.7958 18.3615 9.68326L18.3615 9.59425L23.4851 4.65391C25.9657 7.0458 27.5 10.3502 27.5 14.0001C27.5 17.65 25.9657 20.9543 23.4851 23.3462L18.3615 18.4059Z" fill="#FFFFFF" stroke="#98A2B3" stroke-linecap="round"></path>
    <circle cx="6.43846" cy="6.43846" r="6.43846" transform="matrix(1 0 0 -1 7.56152 20.4385)" fill="#FFFFFF" stroke="#98A2B3" stroke-linecap="round"></circle>
  </g>
  <text x="349.0" y="247.0" text-anchor="middle" font-size="9" fill="#667085" font-family="sans-serif">74</text>
  <g id="tooth-75" transform="translate(401.0, 174.0) scale(-1, 1)">
    <path d="M22.1204 17.5986C19.0084 18.1012 12.3418 18.7333 5.052 18.0996C5.05427 18.3561 5.04478 18.6094 5.01978 18.8584C4.77867 21.251 3.87675 23.2205 2.99048 25.165C2.56644 26.0954 2.14515 27.0191 1.78345 28.001V28.002C1.56841 28.6061 1.38658 29.7903 1.25415 31.3223C1.1234 32.8349 1.04421 34.6326 1.01392 36.4268C0.983634 38.2207 1.00275 40.0056 1.06763 41.4902C1.13258 42.9765 1.24328 44.1167 1.38208 44.6768C1.72116 45.7738 2.42088 45.9398 2.58618 45.9385C2.68306 45.9377 2.77611 45.9657 2.85571 46.0156C3.92694 45.702 4.55813 44.7413 4.93091 43.333C5.33307 41.8134 5.38307 39.948 5.42505 38.2949C5.45477 37.1247 5.47987 36.0068 5.66333 35.2949C6.07321 33.7078 8.00457 28.6228 10.1428 25.2861C10.6794 24.4489 11.2414 23.7025 11.8088 23.1445C12.3648 22.5979 12.987 22.1723 13.6467 22.0957C14.3638 22.0126 14.9886 22.3522 15.4788 23.0283C15.9528 23.6824 16.3352 24.6877 16.634 26.0742V26.0752C17.6562 30.8226 15.9674 34.1511 14.3108 37.4404C13.206 39.634 12.1188 41.8013 11.7239 44.4277C11.617 45.1392 11.7596 45.4749 11.8997 45.627C12.0393 45.7783 12.2922 45.8725 12.6936 45.8359C13.0901 45.7998 13.5551 45.6384 13.9895 45.3877C14.424 45.1369 14.7896 44.819 15.01 44.5039L15.0217 44.4873L15.6877 43.5898C17.26 41.4197 18.9401 38.742 20.2932 35.9395C21.8436 32.7282 22.9436 29.3964 22.9944 26.4951C23.0144 25.3314 22.8099 23.9977 22.5862 22.5518C22.3404 20.9634 22.0749 19.2482 22.1204 17.5986Z" fill="white" stroke="#667085" stroke-linecap="round" stroke-linejoin="round"></path>
<path d="M25.5967 3.04785C23.0876 0.940328 20.9885 0.281002 19.0977 0.560547C17.1825 0.843741 15.3538 2.10643 13.4297 4.13086C13.3276 4.23822 13.183 4.29458 13.0352 4.28516C12.8874 4.27571 12.7516 4.20135 12.6641 4.08203C12.191 3.43618 11.7213 2.91428 11.2539 2.50488C10.4758 1.82341 9.70526 1.45406 8.92676 1.33105C7.56578 1.11619 6.04812 1.63843 4.25879 2.89551C3.10853 3.70415 2.52665 4.69468 2.29395 5.81152C2.05718 6.94838 2.1774 8.24269 2.49023 9.64453C2.80305 11.0462 3.29578 12.5052 3.77441 13.9766C4.20413 15.2975 4.62152 16.6302 4.85742 17.8906C12.4836 18.5868 19.4648 17.8619 22.3379 17.3594C22.3654 17.2307 22.3922 17.1019 22.4258 16.9746L22.4941 16.7344C22.7619 15.7254 23.3812 14.5547 24.0469 13.3584C24.7291 12.1323 25.4745 10.8547 26.0518 9.5752C26.6298 8.29387 27.0112 7.06811 27 5.96094C26.989 4.88234 26.6062 3.89616 25.5967 3.04785Z" fill="white" stroke="#667085" stroke-linecap="round" stroke-linejoin="round"></path>
  </g>
  <g id="tooth-75" transform="translate(373.5, 143.0)">
    <path d="M9.59414 18.3616H9.68316C10.7957 19.4922 12.3193 20.1893 14 20.1893C15.6806 20.1893 17.2043 19.4922 18.3168 18.3616H18.4058L23.3461 23.4851C20.9542 25.9657 17.6499 27.5 14 27.5C10.3501 27.5 7.0457 25.9657 4.65381 23.4851L9.59414 18.3616Z" fill="#FFFFFF" stroke="#98A2B3" stroke-linecap="round"></path>
    <path d="M9.63846 9.59411L9.63846 9.68313C8.50786 10.7956 7.81077 12.3193 7.81077 13.9999C7.81077 15.6806 8.50786 17.2042 9.63846 18.3167L9.63846 18.4058L4.51489 23.3461C2.03429 20.9542 0.499999 17.6498 0.5 13.9999C0.5 10.35 2.03429 7.04567 4.51489 4.65378L9.63846 9.59411Z" fill="#FFFFFF" stroke="#98A2B3" stroke-linecap="round"></path>
    <path d="M18.4057 9.63846L18.3167 9.63846C17.2042 8.50786 15.6806 7.81077 13.9999 7.81077C12.3193 7.81077 10.7956 8.50786 9.68311 9.63846L9.5941 9.63846L4.65376 4.51489C7.04565 2.03428 10.35 0.499999 13.9999 0.499999C17.6498 0.5 20.9542 2.03429 23.3461 4.51489L18.4057 9.63846Z" fill="#FFFFFF" stroke="#98A2B3" stroke-linecap="round"></path>
    <path d="M18.3615 18.4059L18.3615 18.3169C19.4921 17.2044 20.1892 15.6807 20.1892 14.0001C20.1892 12.3194 19.4921 10.7958 18.3615 9.68326L18.3615 9.59425L23.4851 4.65391C25.9657 7.0458 27.5 10.3502 27.5 14.0001C27.5 17.65 25.9657 20.9543 23.4851 23.3462L18.3615 18.4059Z" fill="#FFFFFF" stroke="#98A2B3" stroke-linecap="round"></path>
    <circle cx="6.43846" cy="6.43846" r="6.43846" transform="matrix(1 0 0 -1 7.56152 20.4385)" fill="#FFFFFF" stroke="#98A2B3" stroke-linecap="round"></circle>
  </g>
  <text x="387.0" y="238.0" text-anchor="middle" font-size="9" fill="#667085" font-family="sans-serif">75</text>
</svg>